<?xml version="1.0" encoding="utf-8"?>
<!-- Generator: Adobe Illustrator 18.1.1, SVG Export Plug-In . SVG Version: 6.00 Build 0)  -->
<!DOCTYPE svg PUBLIC "-//W3C//DTD SVG 1.1//EN" "http://www.w3.org/Graphics/SVG/1.1/DTD/svg11.dtd">
<svg version="1.1" id="Capa_1" xmlns="http://www.w3.org/2000/svg" xmlns:xlink="http://www.w3.org/1999/xlink" x="0px" y="0px"
	 viewBox="0 0 35 35" enable-background="new 0 0 35 35" xml:space="preserve">
<g>
	<g>
		<path fill="#EFE6D9" d="M17.5,34.5c-9.4,0-17-7.6-17-17s7.6-17,17-17s17,7.6,17,17S26.9,34.5,17.5,34.5z M17.5,2.5
			c-8.3,0-15,6.7-15,15c0,8.3,6.7,15,15,15c8.3,0,15-6.7,15-15C32.5,9.2,25.8,2.5,17.5,2.5z"/>
	</g>
	<path fill-rule="evenodd" clip-rule="evenodd" fill="#A87B16" d="M18.1,21.5c-0.2,0.2-0.5,0.4-0.8,0.4c-0.3,0-0.6-0.1-0.8-0.4l-4-4
		c-0.2-0.2-0.4-0.6-0.3-0.9c0-0.3,0.1-0.6,0.3-0.8c0.2-0.2,0.5-0.3,0.8-0.3c0.3,0,0.6,0.1,0.9,0.3l3.2,3.2l5.6-5.6
		c0.2-0.2,0.6-0.4,0.9-0.3c0.3,0,0.6,0.1,0.8,0.3c0.2,0.2,0.3,0.5,0.3,0.8c0,0.3-0.1,0.6-0.3,0.9L18.1,21.5z"/>
</g>
</svg>
