<?xml version="1.0" encoding="utf-8"?>
<!-- Generator: Adobe Illustrator 18.1.1, SVG Export Plug-In . SVG Version: 6.00 Build 0)  -->
<!DOCTYPE svg PUBLIC "-//W3C//DTD SVG 1.1//EN" "http://www.w3.org/Graphics/SVG/1.1/DTD/svg11.dtd">
<svg version="1.1" id="Capa_1" xmlns="http://www.w3.org/2000/svg" xmlns:xlink="http://www.w3.org/1999/xlink" x="0px" y="0px"
	 viewBox="0 0 368.6 24.7" enable-background="new 0 0 368.6 24.7" xml:space="preserve">
<g opacity="0.8">
	<g opacity="0.2">
		<path fill="#FFFFFF" d="M118.5,18c0,0.3-0.2,0.6-0.6,0.6l0,0c-0.3,0-0.6-0.2-0.6-0.6V7.3c0-0.3,0.2-0.6,0.6-0.6l0,0
			c0.3,0,0.6,0.2,0.6,0.6V18z"/>
		<path fill="#FFFFFF" d="M120.4,21.3c0,0.3-0.2,0.6-0.6,0.6l0,0c-0.3,0-0.6-0.2-0.6-0.6V4c0-0.3,0.2-0.6,0.6-0.6l0,0
			c0.3,0,0.6,0.2,0.6,0.6V21.3z"/>
		<path fill="#FFFFFF" d="M122.4,21.3c0,0.3-0.2,0.6-0.6,0.6l0,0c-0.3,0-0.6-0.2-0.6-0.6V4c0-0.3,0.2-0.6,0.6-0.6l0,0
			c0.3,0,0.6,0.2,0.6,0.6V21.3z"/>
		<path fill="#FFFFFF" d="M124.3,23.9c0,0.3-0.2,0.6-0.6,0.6l0,0c-0.3,0-0.6-0.2-0.6-0.6V1.4c0-0.3,0.2-0.5,0.6-0.5l0,0
			c0.3,0,0.6,0.2,0.6,0.5V23.9z"/>
		<path fill="#FFFFFF" d="M126.2,23.9c0,0.3-0.2,0.6-0.6,0.6l0,0c-0.3,0-0.6-0.2-0.6-0.6V1.4c0-0.3,0.2-0.5,0.6-0.5l0,0
			c0.3,0,0.6,0.2,0.6,0.5V23.9z"/>
		<path fill="#FFFFFF" d="M128.1,22.3c0,0.3-0.2,0.6-0.6,0.6l0,0c-0.3,0-0.6-0.2-0.6-0.6V3.1c0-0.3,0.2-0.6,0.6-0.6l0,0
			c0.3,0,0.6,0.2,0.6,0.6V22.3z"/>
		<path fill="#FFFFFF" d="M130.1,22.8c0,0.3-0.2,0.6-0.6,0.6l0,0c-0.3,0-0.6-0.2-0.6-0.6V2.5c0-0.3,0.2-0.6,0.6-0.6l0,0
			c0.3,0,0.6,0.2,0.6,0.6V22.8z"/>
		<path fill="#FFFFFF" d="M132,22.8c0,0.3-0.2,0.6-0.6,0.6l0,0c-0.3,0-0.6-0.2-0.6-0.6V2.5c0-0.3,0.2-0.6,0.6-0.6l0,0
			c0.3,0,0.6,0.2,0.6,0.6V22.8z"/>
		<path fill="#FFFFFF" d="M133.9,20.8c0,0.3-0.2,0.6-0.6,0.6l0,0c-0.3,0-0.6-0.2-0.6-0.6V4.5c0-0.3,0.2-0.6,0.6-0.6l0,0
			c0.3,0,0.6,0.2,0.6,0.6V20.8z"/>
		<path fill="#FFFFFF" d="M135.9,19.7c0,0.3-0.2,0.6-0.6,0.6l0,0c-0.3,0-0.6-0.2-0.6-0.6V5.6c0-0.3,0.2-0.6,0.6-0.6l0,0
			c0.3,0,0.6,0.2,0.6,0.6V19.7z"/>
		<path fill="#FFFFFF" d="M137.8,19.7c0,0.3-0.2,0.6-0.6,0.6l0,0c-0.3,0-0.6-0.2-0.6-0.6V5.6c0-0.3,0.2-0.6,0.6-0.6l0,0
			c0.3,0,0.6,0.2,0.6,0.6V19.7z"/>
		<path fill="#FFFFFF" d="M139.7,18c0,0.3-0.2,0.6-0.6,0.6l0,0c-0.3,0-0.6-0.2-0.6-0.6V7.3c0-0.3,0.2-0.6,0.6-0.6l0,0
			c0.3,0,0.6,0.2,0.6,0.6V18z"/>
		<path fill="#FFFFFF" d="M141.6,18c0,0.3-0.2,0.6-0.6,0.6l0,0c-0.3,0-0.6-0.2-0.6-0.6V7.3c0-0.3,0.2-0.6,0.6-0.6l0,0
			c0.3,0,0.6,0.2,0.6,0.6V18z"/>
		<path fill="#FFFFFF" d="M143.6,18.7c0,0.3-0.2,0.6-0.6,0.6l0,0c-0.3,0-0.6-0.2-0.6-0.6V6.6c0-0.3,0.2-0.6,0.6-0.6l0,0
			c0.3,0,0.6,0.2,0.6,0.6V18.7z"/>
		<path fill="#FFFFFF" d="M145.5,19.6c0,0.3-0.2,0.5-0.6,0.5l0,0c-0.3,0-0.6-0.2-0.6-0.5V5.7c0-0.3,0.2-0.6,0.6-0.6l0,0
			c0.3,0,0.6,0.2,0.6,0.6V19.6z"/>
		<path fill="#FFFFFF" d="M147.4,17.7c0,0.3-0.2,0.6-0.6,0.6l0,0c-0.3,0-0.6-0.2-0.6-0.6V7.6c0-0.3,0.2-0.5,0.6-0.5l0,0
			c0.3,0,0.6,0.2,0.6,0.5V17.7z"/>
		<path fill="#FFFFFF" d="M149.4,21.2c0,0.3-0.2,0.6-0.6,0.6l0,0c-0.3,0-0.6-0.2-0.6-0.6v-17c0-0.3,0.2-0.6,0.6-0.6l0,0
			c0.3,0,0.6,0.2,0.6,0.6V21.2z"/>
		<path fill="#FFFFFF" d="M151.3,23.4c0,0.3-0.2,0.6-0.6,0.6l0,0c-0.3,0-0.6-0.2-0.6-0.6V1.9c0-0.3,0.2-0.6,0.6-0.6l0,0
			c0.3,0,0.6,0.2,0.6,0.6V23.4z"/>
		<path fill="#FFFFFF" d="M153.2,21.8c0,0.3-0.2,0.6-0.6,0.6l0,0c-0.3,0-0.6-0.2-0.6-0.6V3.5c0-0.3,0.2-0.6,0.6-0.6l0,0
			c0.3,0,0.6,0.2,0.6,0.6V21.8z"/>
		<path fill="#FFFFFF" d="M155.1,19.5c0,0.3-0.2,0.6-0.6,0.6l0,0c-0.3,0-0.6-0.2-0.6-0.6V5.8c0-0.3,0.2-0.6,0.6-0.6l0,0
			c0.3,0,0.6,0.2,0.6,0.6V19.5z"/>
		<path fill="#FFFFFF" d="M157,19.5c0,0.3-0.2,0.6-0.6,0.6l0,0c-0.3,0-0.6-0.2-0.6-0.6V5.8c0-0.3,0.2-0.6,0.6-0.6l0,0
			c0.3,0,0.6,0.2,0.6,0.6V19.5z"/>
		<path fill="#FFFFFF" d="M159,18.9c0,0.3-0.2,0.5-0.6,0.5l0,0c-0.3,0-0.6-0.2-0.6-0.5V6.4c0-0.3,0.2-0.6,0.6-0.6l0,0
			c0.3,0,0.6,0.2,0.6,0.6V18.9z"/>
		<path fill="#FFFFFF" d="M160.9,22c0,0.3-0.2,0.6-0.6,0.6l0,0c-0.3,0-0.6-0.2-0.6-0.6V3.3c0-0.3,0.2-0.6,0.6-0.6l0,0
			c0.3,0,0.6,0.2,0.6,0.6V22z"/>
		<path fill="#FFFFFF" d="M162.8,22.8c0,0.3-0.2,0.6-0.6,0.6l0,0c-0.3,0-0.6-0.2-0.6-0.6V2.5c0-0.3,0.2-0.6,0.6-0.6l0,0
			c0.3,0,0.6,0.2,0.6,0.6V22.8z"/>
		<path fill="#FFFFFF" d="M164.8,24.8c0,0.3-0.2,0.5-0.6,0.5l0,0c-0.3,0-0.6-0.2-0.6-0.5V0.6c0-0.3,0.2-0.6,0.6-0.6l0,0
			c0.3,0,0.6,0.2,0.6,0.6V24.8z"/>
		<path fill="#FFFFFF" d="M166.7,23.6c0,0.3-0.2,0.5-0.6,0.5l0,0c-0.3,0-0.6-0.2-0.6-0.5V1.7c0-0.3,0.2-0.5,0.6-0.5l0,0
			c0.3,0,0.6,0.2,0.6,0.5V23.6z"/>
		<path fill="#FFFFFF" d="M168.6,21.7c0,0.3-0.2,0.6-0.6,0.6l0,0c-0.3,0-0.6-0.2-0.6-0.6V3.6c0-0.3,0.2-0.6,0.6-0.6l0,0
			c0.3,0,0.6,0.2,0.6,0.6V21.7z"/>
		<path fill="#FFFFFF" d="M170.5,18c0,0.3-0.2,0.6-0.6,0.6l0,0c-0.3,0-0.6-0.2-0.6-0.6V7.3c0-0.3,0.2-0.6,0.6-0.6l0,0
			c0.3,0,0.6,0.2,0.6,0.6V18z"/>
		<path fill="#FFFFFF" d="M172.5,20.5c0,0.3-0.2,0.5-0.6,0.5l0,0c-0.3,0-0.5-0.2-0.5-0.5V4.8c0-0.3,0.2-0.6,0.5-0.6l0,0
			c0.3,0,0.6,0.2,0.6,0.6V20.5z"/>
		<path fill="#FFFFFF" d="M174.4,23.8c0,0.3-0.2,0.6-0.6,0.6l0,0c-0.3,0-0.6-0.2-0.6-0.6V1.5c0-0.3,0.2-0.6,0.6-0.6l0,0
			c0.3,0,0.6,0.2,0.6,0.6V23.8z"/>
		<path fill="#FFFFFF" d="M176.3,22.3c0,0.3-0.2,0.6-0.6,0.6l0,0c-0.3,0-0.6-0.2-0.6-0.6V3c0-0.3,0.2-0.6,0.6-0.6l0,0
			c0.3,0,0.6,0.2,0.6,0.6V22.3z"/>
		<path fill="#FFFFFF" d="M178.3,22.3c0,0.3-0.2,0.6-0.6,0.6l0,0c-0.3,0-0.6-0.2-0.6-0.6V3c0-0.3,0.2-0.6,0.6-0.6l0,0
			c0.3,0,0.6,0.2,0.6,0.6V22.3z"/>
		<path fill="#FFFFFF" d="M180.2,24.5c0,0.3-0.2,0.6-0.6,0.6l0,0c-0.3,0-0.6-0.2-0.6-0.6V0.8c0-0.3,0.2-0.6,0.6-0.6l0,0
			c0.3,0,0.6,0.2,0.6,0.6V24.5z"/>
		<path fill="#FFFFFF" d="M182.1,22.3c0,0.3-0.2,0.6-0.5,0.6l0,0c-0.3,0-0.6-0.2-0.6-0.6V3c0-0.3,0.2-0.6,0.6-0.6l0,0
			c0.3,0,0.5,0.2,0.5,0.6V22.3z"/>
		<path fill="#FFFFFF" d="M184.1,24.1c0,0.3-0.2,0.6-0.6,0.6l0,0c-0.3,0-0.6-0.2-0.6-0.6v-23c0-0.3,0.2-0.6,0.6-0.6l0,0
			c0.3,0,0.6,0.2,0.6,0.6V24.1z"/>
		<path fill="#FFFFFF" d="M116.6,17.6c0,0.3-0.2,0.6-0.6,0.6l0,0c-0.3,0-0.6-0.2-0.6-0.6V7.7c0-0.3,0.2-0.6,0.6-0.6l0,0
			c0.3,0,0.6,0.2,0.6,0.6V17.6z"/>
		<path fill="#FFFFFF" d="M114.7,20c0,0.3-0.2,0.6-0.6,0.6l0,0c-0.3,0-0.6-0.2-0.6-0.6V5.3c0-0.3,0.2-0.5,0.6-0.5l0,0
			c0.3,0,0.6,0.2,0.6,0.5V20z"/>
		<path fill="#FFFFFF" d="M112.7,17.4c0,0.3-0.2,0.6-0.6,0.6l0,0c-0.3,0-0.6-0.2-0.6-0.6V7.9c0-0.3,0.2-0.6,0.6-0.6l0,0
			c0.3,0,0.6,0.2,0.6,0.6V17.4z"/>
		<path fill="#FFFFFF" d="M110.8,18.3c0,0.3-0.2,0.5-0.6,0.5l0,0c-0.3,0-0.6-0.2-0.6-0.5V7c0-0.3,0.2-0.6,0.6-0.6l0,0
			c0.3,0,0.6,0.2,0.6,0.6V18.3z"/>
		<path fill="#FFFFFF" d="M108.9,17c0,0.3-0.2,0.5-0.6,0.5l0,0c-0.3,0-0.6-0.2-0.6-0.5V8.3c0-0.3,0.2-0.5,0.6-0.5l0,0
			c0.3,0,0.6,0.2,0.6,0.5V17z"/>
		<path fill="#FFFFFF" d="M106.9,18.3c0,0.3-0.2,0.6-0.6,0.6l0,0c-0.3,0-0.6-0.2-0.6-0.6V7.1c0-0.3,0.2-0.6,0.6-0.6l0,0
			c0.3,0,0.6,0.2,0.6,0.6V18.3z"/>
		<path fill="#FFFFFF" d="M105,19.4c0,0.3-0.2,0.6-0.6,0.6l0,0c-0.3,0-0.6-0.2-0.6-0.6V5.9c0-0.3,0.2-0.6,0.6-0.6l0,0
			c0.3,0,0.6,0.2,0.6,0.6V19.4z"/>
		<path fill="#FFFFFF" d="M103.1,18.5c0,0.3-0.2,0.6-0.6,0.6l0,0c-0.3,0-0.6-0.2-0.6-0.6V6.8c0-0.3,0.2-0.6,0.6-0.6l0,0
			c0.3,0,0.6,0.2,0.6,0.6V18.5z"/>
		<path fill="#FFFFFF" d="M101.2,19.4c0,0.3-0.2,0.6-0.6,0.6l0,0c-0.3,0-0.6-0.2-0.6-0.6V5.9c0-0.3,0.2-0.6,0.6-0.6l0,0
			c0.3,0,0.6,0.2,0.6,0.6V19.4z"/>
		<path fill="#FFFFFF" d="M99.4,23.8c0,0.3-0.2,0.5-0.6,0.5l0,0c-0.3,0-0.6-0.2-0.6-0.5V1.5c0-0.3,0.2-0.6,0.6-0.6l0,0
			c0.3,0,0.6,0.2,0.6,0.6V23.8z"/>
		<path fill="#FFFFFF" d="M97.4,23.8c0,0.3-0.2,0.5-0.6,0.5l0,0c-0.3,0-0.6-0.2-0.6-0.5V1.5c0-0.3,0.2-0.6,0.6-0.6l0,0
			c0.3,0,0.6,0.2,0.6,0.6V23.8z"/>
		<path fill="#FFFFFF" d="M95.5,22.2c0,0.3-0.2,0.6-0.6,0.6l0,0c-0.3,0-0.6-0.2-0.6-0.6v-19c0-0.3,0.2-0.6,0.6-0.6l0,0
			c0.3,0,0.6,0.2,0.6,0.6V22.2z"/>
		<path fill="#FFFFFF" d="M93.6,20c0,0.3-0.2,0.6-0.6,0.6l0,0c-0.3,0-0.6-0.2-0.6-0.6V5.3c0-0.3,0.2-0.6,0.6-0.6l0,0
			c0.3,0,0.6,0.2,0.6,0.6V20z"/>
		<path fill="#FFFFFF" d="M26.1,18c0,0.3-0.2,0.6-0.6,0.6l0,0c-0.3,0-0.6-0.2-0.6-0.6V7.3c0-0.3,0.2-0.6,0.6-0.6l0,0
			c0.3,0,0.6,0.2,0.6,0.6V18z"/>
		<path fill="#FFFFFF" d="M28,21.3c0,0.3-0.2,0.6-0.6,0.6l0,0c-0.3,0-0.6-0.2-0.6-0.6V4c0-0.3,0.2-0.6,0.6-0.6l0,0
			C27.7,3.4,28,3.7,28,4V21.3z"/>
		<path fill="#FFFFFF" d="M29.9,21.3c0,0.3-0.2,0.6-0.6,0.6l0,0c-0.3,0-0.6-0.2-0.6-0.6V4c0-0.3,0.2-0.6,0.6-0.6l0,0
			c0.3,0,0.6,0.2,0.6,0.6V21.3z"/>
		<path fill="#FFFFFF" d="M31.8,23.9c0,0.3-0.2,0.6-0.6,0.6l0,0c-0.3,0-0.6-0.2-0.6-0.6V1.4c0-0.3,0.2-0.5,0.6-0.5l0,0
			c0.3,0,0.6,0.2,0.6,0.5V23.9z"/>
		<path fill="#FFFFFF" d="M33.8,23.9c0,0.3-0.2,0.6-0.6,0.6l0,0c-0.3,0-0.6-0.2-0.6-0.6V1.4c0-0.3,0.2-0.5,0.6-0.5l0,0
			c0.3,0,0.6,0.2,0.6,0.5V23.9z"/>
		<path fill="#FFFFFF" d="M35.7,22.3c0,0.3-0.2,0.6-0.6,0.6l0,0c-0.3,0-0.6-0.2-0.6-0.6V3.1c0-0.3,0.2-0.6,0.6-0.6l0,0
			c0.3,0,0.6,0.2,0.6,0.6V22.3z"/>
		<path fill="#FFFFFF" d="M37.6,22.8c0,0.3-0.2,0.6-0.6,0.6l0,0c-0.3,0-0.6-0.2-0.6-0.6V2.5c0-0.3,0.2-0.6,0.6-0.6l0,0
			c0.3,0,0.6,0.2,0.6,0.6V22.8z"/>
		<path fill="#FFFFFF" d="M39.6,22.8c0,0.3-0.2,0.6-0.6,0.6l0,0c-0.3,0-0.6-0.2-0.6-0.6V2.5c0-0.3,0.2-0.6,0.6-0.6l0,0
			c0.3,0,0.6,0.2,0.6,0.6V22.8z"/>
		<path fill="#FFFFFF" d="M41.5,20.8c0,0.3-0.2,0.6-0.6,0.6l0,0c-0.3,0-0.6-0.2-0.6-0.6V4.5c0-0.3,0.2-0.6,0.6-0.6l0,0
			c0.3,0,0.6,0.2,0.6,0.6V20.8z"/>
		<path fill="#FFFFFF" d="M43.4,19.7c0,0.3-0.2,0.6-0.6,0.6l0,0c-0.3,0-0.6-0.2-0.6-0.6V5.6c0-0.3,0.2-0.6,0.6-0.6l0,0
			c0.3,0,0.6,0.2,0.6,0.6V19.7z"/>
		<path fill="#FFFFFF" d="M45.3,19.7c0,0.3-0.2,0.6-0.6,0.6l0,0c-0.3,0-0.6-0.2-0.6-0.6V5.6c0-0.3,0.2-0.6,0.6-0.6l0,0
			c0.3,0,0.6,0.2,0.6,0.6V19.7z"/>
		<path fill="#FFFFFF" d="M47.3,18c0,0.3-0.2,0.6-0.6,0.6l0,0c-0.3,0-0.6-0.2-0.6-0.6V7.3c0-0.3,0.2-0.6,0.6-0.6l0,0
			c0.3,0,0.6,0.2,0.6,0.6V18z"/>
		<path fill="#FFFFFF" d="M49.2,18c0,0.3-0.2,0.6-0.6,0.6l0,0c-0.3,0-0.6-0.2-0.6-0.6V7.3c0-0.3,0.2-0.6,0.6-0.6l0,0
			c0.3,0,0.6,0.2,0.6,0.6V18z"/>
		<path fill="#FFFFFF" d="M51.1,18.7c0,0.3-0.2,0.6-0.6,0.6l0,0c-0.3,0-0.6-0.2-0.6-0.6V6.6C50,6.3,50.3,6,50.6,6l0,0
			c0.3,0,0.6,0.2,0.6,0.6V18.7z"/>
		<path fill="#FFFFFF" d="M53.1,17.7c0,0.3-0.2,0.6-0.6,0.6l0,0c-0.3,0-0.6-0.2-0.6-0.6V7.6c0-0.3,0.2-0.5,0.6-0.5l0,0
			c0.3,0,0.6,0.2,0.6,0.5V17.7z"/>
		<path fill="#FFFFFF" d="M55,17.7c0,0.3-0.2,0.6-0.6,0.6l0,0c-0.3,0-0.6-0.2-0.6-0.6V7.6c0-0.3,0.2-0.5,0.6-0.5l0,0
			c0.3,0,0.6,0.2,0.6,0.5V17.7z"/>
		<path fill="#FFFFFF" d="M56.9,21.2c0,0.3-0.2,0.6-0.6,0.6l0,0c-0.3,0-0.6-0.2-0.6-0.6v-17c0-0.3,0.2-0.6,0.6-0.6l0,0
			c0.3,0,0.6,0.2,0.6,0.6V21.2z"/>
		<path fill="#FFFFFF" d="M58.8,23.4c0,0.3-0.2,0.6-0.6,0.6l0,0c-0.3,0-0.6-0.2-0.6-0.6V1.9c0-0.3,0.2-0.6,0.6-0.6l0,0
			c0.3,0,0.6,0.2,0.6,0.6V23.4z"/>
		<path fill="#FFFFFF" d="M60.8,21.8c0,0.3-0.2,0.6-0.5,0.6l0,0c-0.3,0-0.6-0.2-0.6-0.6V3.5c0-0.3,0.2-0.6,0.6-0.6l0,0
			c0.3,0,0.5,0.2,0.5,0.6V21.8z"/>
		<path fill="#FFFFFF" d="M62.7,19.5c0,0.3-0.2,0.6-0.6,0.6l0,0c-0.3,0-0.6-0.2-0.6-0.6V5.8c0-0.3,0.2-0.6,0.6-0.6l0,0
			c0.3,0,0.6,0.2,0.6,0.6V19.5z"/>
		<path fill="#FFFFFF" d="M64.6,20.9c0,0.3-0.2,0.6-0.6,0.6l0,0c-0.3,0-0.6-0.2-0.6-0.6V4.4c0-0.3,0.2-0.6,0.6-0.6l0,0
			c0.3,0,0.6,0.2,0.6,0.6V20.9z"/>
		<path fill="#FFFFFF" d="M66.5,18.9c0,0.3-0.2,0.5-0.6,0.5l0,0c-0.3,0-0.6-0.2-0.6-0.5V6.4c0-0.3,0.2-0.6,0.6-0.6l0,0
			c0.3,0,0.6,0.2,0.6,0.6V18.9z"/>
		<path fill="#FFFFFF" d="M68.4,22c0,0.3-0.2,0.6-0.6,0.6l0,0c-0.3,0-0.6-0.2-0.6-0.6V3.3c0-0.3,0.2-0.6,0.6-0.6l0,0
			c0.3,0,0.6,0.2,0.6,0.6V22z"/>
		<path fill="#FFFFFF" d="M70.4,22.8c0,0.3-0.2,0.6-0.6,0.6l0,0c-0.3,0-0.6-0.2-0.6-0.6V2.5c0-0.3,0.2-0.6,0.6-0.6l0,0
			c0.3,0,0.6,0.2,0.6,0.6V22.8z"/>
		<path fill="#FFFFFF" d="M72.3,24.8c0,0.3-0.2,0.5-0.6,0.5l0,0c-0.3,0-0.6-0.2-0.6-0.5V0.6c0-0.3,0.2-0.6,0.6-0.6l0,0
			c0.3,0,0.6,0.2,0.6,0.6V24.8z"/>
		<path fill="#FFFFFF" d="M74.2,23.6c0,0.3-0.2,0.5-0.6,0.5l0,0c-0.3,0-0.6-0.2-0.6-0.5V1.7c0-0.3,0.2-0.5,0.6-0.5l0,0
			c0.3,0,0.6,0.2,0.6,0.5V23.6z"/>
		<path fill="#FFFFFF" d="M76.2,21.7c0,0.3-0.2,0.6-0.6,0.6l0,0c-0.3,0-0.6-0.2-0.6-0.6V3.6c0-0.3,0.2-0.6,0.6-0.6l0,0
			c0.3,0,0.6,0.2,0.6,0.6V21.7z"/>
		<path fill="#FFFFFF" d="M78.1,18c0,0.3-0.2,0.6-0.6,0.6l0,0c-0.3,0-0.6-0.2-0.6-0.6V7.3c0-0.3,0.2-0.6,0.6-0.6l0,0
			c0.3,0,0.6,0.2,0.6,0.6V18z"/>
		<path fill="#FFFFFF" d="M80,20.5c0,0.3-0.2,0.5-0.6,0.5l0,0c-0.3,0-0.6-0.2-0.6-0.5V4.8c0-0.3,0.2-0.6,0.6-0.6l0,0
			c0.3,0,0.6,0.2,0.6,0.6V20.5z"/>
		<path fill="#FFFFFF" d="M81.9,23.8c0,0.3-0.2,0.6-0.6,0.6l0,0c-0.3,0-0.6-0.2-0.6-0.6V1.5c0-0.3,0.2-0.6,0.6-0.6l0,0
			c0.3,0,0.6,0.2,0.6,0.6V23.8z"/>
		<path fill="#FFFFFF" d="M83.9,22.3c0,0.3-0.2,0.6-0.6,0.6l0,0c-0.3,0-0.6-0.2-0.6-0.6V3c0-0.3,0.2-0.6,0.6-0.6l0,0
			c0.3,0,0.6,0.2,0.6,0.6V22.3z"/>
		<path fill="#FFFFFF" d="M85.8,19.1c0,0.3-0.2,0.6-0.6,0.6l0,0c-0.3,0-0.5-0.2-0.5-0.6v-13c0-0.3,0.2-0.6,0.5-0.6l0,0
			c0.3,0,0.6,0.2,0.6,0.6V19.1z"/>
		<path fill="#FFFFFF" d="M87.8,16.8c0,0.3-0.2,0.6-0.6,0.6l0,0c-0.3,0-0.6-0.2-0.6-0.6V8.5c0-0.3,0.2-0.6,0.6-0.6l0,0
			c0.3,0,0.6,0.2,0.6,0.6V16.8z"/>
		<path fill="#FFFFFF" d="M89.7,22.3c0,0.3-0.2,0.6-0.6,0.6l0,0c-0.3,0-0.6-0.2-0.6-0.6V3c0-0.3,0.2-0.6,0.6-0.6l0,0
			c0.3,0,0.6,0.2,0.6,0.6V22.3z"/>
		<path fill="#FFFFFF" d="M91.6,24.1c0,0.3-0.2,0.6-0.6,0.6l0,0c-0.3,0-0.6-0.2-0.6-0.6v-23c0-0.3,0.2-0.6,0.6-0.6l0,0
			c0.3,0,0.6,0.2,0.6,0.6V24.1z"/>
		<path fill="#FFFFFF" d="M24.1,17.6c0,0.3-0.2,0.6-0.6,0.6l0,0c-0.3,0-0.5-0.2-0.5-0.6V7.7c0-0.3,0.2-0.6,0.5-0.6l0,0
			c0.3,0,0.6,0.2,0.6,0.6V17.6z"/>
		<path fill="#FFFFFF" d="M22.2,17.4c0,0.3-0.2,0.6-0.6,0.6l0,0c-0.3,0-0.6-0.2-0.6-0.6V7.9c0-0.3,0.2-0.6,0.6-0.6l0,0
			c0.3,0,0.6,0.2,0.6,0.6V17.4z"/>
		<path fill="#FFFFFF" d="M20.3,17.4c0,0.3-0.2,0.6-0.6,0.6l0,0c-0.3,0-0.6-0.2-0.6-0.6V7.9c0-0.3,0.2-0.6,0.6-0.6l0,0
			c0.3,0,0.6,0.2,0.6,0.6V17.4z"/>
		<path fill="#FFFFFF" d="M18.3,16.1c0,0.3-0.2,0.6-0.6,0.6l0,0c-0.3,0-0.6-0.2-0.6-0.6V9.2c0-0.3,0.2-0.6,0.6-0.6l0,0
			c0.3,0,0.6,0.2,0.6,0.6V16.1z"/>
		<path fill="#FFFFFF" d="M16.4,17c0,0.3-0.2,0.5-0.6,0.5l0,0c-0.3,0-0.6-0.2-0.6-0.5V8.3c0-0.3,0.2-0.5,0.6-0.5l0,0
			c0.3,0,0.6,0.2,0.6,0.5V17z"/>
		<path fill="#FFFFFF" d="M14.5,18.3c0,0.3-0.2,0.6-0.6,0.6l0,0c-0.3,0-0.6-0.2-0.6-0.6V7.1c0-0.3,0.2-0.6,0.6-0.6l0,0
			c0.3,0,0.6,0.2,0.6,0.6V18.3z"/>
		<path fill="#FFFFFF" d="M12.6,19.4c0,0.3-0.2,0.6-0.6,0.6l0,0c-0.3,0-0.6-0.2-0.6-0.6V5.9c0-0.3,0.2-0.6,0.6-0.6l0,0
			c0.3,0,0.6,0.2,0.6,0.6V19.4z"/>
		<path fill="#FFFFFF" d="M10.6,21.5c0,0.3-0.2,0.6-0.6,0.6l0,0c-0.3,0-0.6-0.2-0.6-0.6V3.8c0-0.3,0.2-0.6,0.6-0.6l0,0
			c0.3,0,0.6,0.2,0.6,0.6V21.5z"/>
		<path fill="#FFFFFF" d="M8.7,19.4c0,0.3-0.2,0.6-0.6,0.6l0,0c-0.3,0-0.6-0.2-0.6-0.6V5.9c0-0.3,0.2-0.6,0.6-0.6l0,0
			c0.3,0,0.6,0.2,0.6,0.6V19.4z"/>
		<path fill="#FFFFFF" d="M6.9,23.8c0,0.3-0.2,0.5-0.6,0.5l0,0c-0.3,0-0.6-0.2-0.6-0.5V1.5c0-0.3,0.2-0.6,0.6-0.6l0,0
			c0.3,0,0.6,0.2,0.6,0.6V23.8z"/>
		<path fill="#FFFFFF" d="M5,23.8c0,0.3-0.2,0.5-0.6,0.5l0,0c-0.3,0-0.6-0.2-0.6-0.5V1.5c0-0.3,0.2-0.6,0.6-0.6l0,0
			C4.7,0.9,5,1.2,5,1.5V23.8z"/>
		<path fill="#FFFFFF" d="M3,22.2c0,0.3-0.2,0.6-0.6,0.6l0,0c-0.3,0-0.6-0.2-0.6-0.6v-19c0-0.3,0.2-0.6,0.6-0.6l0,0
			C2.8,2.6,3,2.8,3,3.2V22.2z"/>
		<path fill="#FFFFFF" d="M1.1,20c0,0.3-0.2,0.6-0.6,0.6l0,0C0.2,20.6,0,20.4,0,20V5.3C0,5,0.2,4.7,0.6,4.7l0,0
			c0.3,0,0.6,0.2,0.6,0.6V20z"/>
	</g>
	<g opacity="0.2">
		<path fill="#FFFFFF" d="M303.5,18c0,0.3-0.2,0.6-0.6,0.6l0,0c-0.3,0-0.6-0.2-0.6-0.6V7.3c0-0.3,0.2-0.6,0.6-0.6l0,0
			c0.3,0,0.6,0.2,0.6,0.6V18z"/>
		<path fill="#FFFFFF" d="M305.5,21.3c0,0.3-0.2,0.6-0.6,0.6l0,0c-0.3,0-0.6-0.2-0.6-0.6V4c0-0.3,0.2-0.6,0.6-0.6l0,0
			c0.3,0,0.6,0.2,0.6,0.6V21.3z"/>
		<path fill="#FFFFFF" d="M307.4,21.3c0,0.3-0.2,0.6-0.6,0.6l0,0c-0.3,0-0.6-0.2-0.6-0.6V4c0-0.3,0.2-0.6,0.6-0.6l0,0
			c0.3,0,0.6,0.2,0.6,0.6V21.3z"/>
		<path fill="#FFFFFF" d="M309.3,23.9c0,0.3-0.2,0.6-0.6,0.6l0,0c-0.3,0-0.6-0.2-0.6-0.6V1.4c0-0.3,0.2-0.5,0.6-0.5l0,0
			c0.3,0,0.6,0.2,0.6,0.5V23.9z"/>
		<path fill="#FFFFFF" d="M311.3,23.9c0,0.3-0.2,0.6-0.6,0.6l0,0c-0.3,0-0.6-0.2-0.6-0.6V1.4c0-0.3,0.2-0.5,0.6-0.5l0,0
			c0.3,0,0.6,0.2,0.6,0.5V23.9z"/>
		<path fill="#FFFFFF" d="M313.2,22.3c0,0.3-0.2,0.6-0.6,0.6l0,0c-0.3,0-0.6-0.2-0.6-0.6V3.1c0-0.3,0.2-0.6,0.6-0.6l0,0
			c0.3,0,0.6,0.2,0.6,0.6V22.3z"/>
		<path fill="#FFFFFF" d="M315.1,22.8c0,0.3-0.2,0.6-0.6,0.6l0,0c-0.3,0-0.6-0.2-0.6-0.6V2.5c0-0.3,0.2-0.6,0.6-0.6l0,0
			c0.3,0,0.6,0.2,0.6,0.6V22.8z"/>
		<path fill="#FFFFFF" d="M317,22.8c0,0.3-0.2,0.6-0.6,0.6l0,0c-0.3,0-0.6-0.2-0.6-0.6V2.5c0-0.3,0.2-0.6,0.6-0.6l0,0
			c0.3,0,0.6,0.2,0.6,0.6V22.8z"/>
		<path fill="#FFFFFF" d="M319,20.8c0,0.3-0.2,0.6-0.6,0.6l0,0c-0.3,0-0.6-0.2-0.6-0.6V4.5c0-0.3,0.2-0.6,0.6-0.6l0,0
			c0.3,0,0.6,0.2,0.6,0.6V20.8z"/>
		<path fill="#FFFFFF" d="M320.9,19.7c0,0.3-0.2,0.6-0.6,0.6l0,0c-0.3,0-0.6-0.2-0.6-0.6V5.6c0-0.3,0.2-0.6,0.6-0.6l0,0
			c0.3,0,0.6,0.2,0.6,0.6V19.7z"/>
		<path fill="#FFFFFF" d="M322.8,19.7c0,0.3-0.2,0.6-0.6,0.6l0,0c-0.3,0-0.6-0.2-0.6-0.6V5.6c0-0.3,0.2-0.6,0.6-0.6l0,0
			c0.3,0,0.6,0.2,0.6,0.6V19.7z"/>
		<path fill="#FFFFFF" d="M324.8,18c0,0.3-0.2,0.6-0.6,0.6l0,0c-0.3,0-0.6-0.2-0.6-0.6V7.3c0-0.3,0.2-0.6,0.6-0.6l0,0
			c0.3,0,0.6,0.2,0.6,0.6V18z"/>
		<path fill="#FFFFFF" d="M326.7,18c0,0.3-0.2,0.6-0.6,0.6l0,0c-0.3,0-0.6-0.2-0.6-0.6V7.3c0-0.3,0.2-0.6,0.6-0.6l0,0
			c0.3,0,0.6,0.2,0.6,0.6V18z"/>
		<path fill="#FFFFFF" d="M328.6,18.7c0,0.3-0.2,0.6-0.5,0.6l0,0c-0.3,0-0.6-0.2-0.6-0.6V6.6c0-0.3,0.2-0.6,0.6-0.6l0,0
			c0.3,0,0.5,0.2,0.5,0.6V18.7z"/>
		<path fill="#FFFFFF" d="M330.5,19.6c0,0.3-0.2,0.5-0.6,0.5l0,0c-0.3,0-0.6-0.2-0.6-0.5V5.7c0-0.3,0.2-0.6,0.6-0.6l0,0
			c0.3,0,0.6,0.2,0.6,0.6V19.6z"/>
		<path fill="#FFFFFF" d="M332.5,17.7c0,0.3-0.2,0.6-0.6,0.6l0,0c-0.3,0-0.6-0.2-0.6-0.6V7.6c0-0.3,0.2-0.5,0.6-0.5l0,0
			c0.3,0,0.6,0.2,0.6,0.5V17.7z"/>
		<path fill="#FFFFFF" d="M334.4,21.2c0,0.3-0.2,0.6-0.6,0.6l0,0c-0.3,0-0.6-0.2-0.6-0.6v-17c0-0.3,0.2-0.6,0.6-0.6l0,0
			c0.3,0,0.6,0.2,0.6,0.6V21.2z"/>
		<path fill="#FFFFFF" d="M336.3,23.4c0,0.3-0.2,0.6-0.6,0.6l0,0c-0.3,0-0.6-0.2-0.6-0.6V1.9c0-0.3,0.2-0.6,0.6-0.6l0,0
			c0.3,0,0.6,0.2,0.6,0.6V23.4z"/>
		<path fill="#FFFFFF" d="M338.3,21.8c0,0.3-0.2,0.6-0.6,0.6l0,0c-0.3,0-0.6-0.2-0.6-0.6V3.5c0-0.3,0.2-0.6,0.6-0.6l0,0
			c0.3,0,0.6,0.2,0.6,0.6V21.8z"/>
		<path fill="#FFFFFF" d="M340.2,19.5c0,0.3-0.2,0.6-0.6,0.6l0,0c-0.3,0-0.6-0.2-0.6-0.6V5.8c0-0.3,0.2-0.6,0.6-0.6l0,0
			c0.3,0,0.6,0.2,0.6,0.6V19.5z"/>
		<path fill="#FFFFFF" d="M342.1,19.5c0,0.3-0.2,0.6-0.6,0.6l0,0c-0.3,0-0.6-0.2-0.6-0.6V5.8c0-0.3,0.2-0.6,0.6-0.6l0,0
			c0.3,0,0.6,0.2,0.6,0.6V19.5z"/>
		<path fill="#FFFFFF" d="M344,18.9c0,0.3-0.2,0.5-0.6,0.5l0,0c-0.3,0-0.6-0.2-0.6-0.5V6.4c0-0.3,0.2-0.6,0.6-0.6l0,0
			c0.3,0,0.6,0.2,0.6,0.6V18.9z"/>
		<path fill="#FFFFFF" d="M345.9,22c0,0.3-0.2,0.6-0.6,0.6l0,0c-0.3,0-0.6-0.2-0.6-0.6V3.3c0-0.3,0.2-0.6,0.6-0.6l0,0
			c0.3,0,0.6,0.2,0.6,0.6V22z"/>
		<path fill="#FFFFFF" d="M347.9,22.8c0,0.3-0.2,0.6-0.6,0.6l0,0c-0.3,0-0.6-0.2-0.6-0.6V2.5c0-0.3,0.2-0.6,0.6-0.6l0,0
			c0.3,0,0.6,0.2,0.6,0.6V22.8z"/>
		<path fill="#FFFFFF" d="M349.8,24.8c0,0.3-0.2,0.5-0.6,0.5l0,0c-0.3,0-0.6-0.2-0.6-0.5V0.6c0-0.3,0.2-0.6,0.6-0.6l0,0
			c0.3,0,0.6,0.2,0.6,0.6V24.8z"/>
		<path fill="#FFFFFF" d="M351.7,23.6c0,0.3-0.2,0.5-0.6,0.5l0,0c-0.3,0-0.6-0.2-0.6-0.5V1.7c0-0.3,0.2-0.5,0.6-0.5l0,0
			c0.3,0,0.6,0.2,0.6,0.5V23.6z"/>
		<path fill="#FFFFFF" d="M353.7,21.7c0,0.3-0.2,0.6-0.6,0.6l0,0c-0.3,0-0.6-0.2-0.6-0.6V3.6c0-0.3,0.2-0.6,0.6-0.6l0,0
			c0.3,0,0.6,0.2,0.6,0.6V21.7z"/>
		<path fill="#FFFFFF" d="M355.6,18c0,0.3-0.2,0.6-0.6,0.6l0,0c-0.3,0-0.6-0.2-0.6-0.6V7.3c0-0.3,0.2-0.6,0.6-0.6l0,0
			c0.3,0,0.6,0.2,0.6,0.6V18z"/>
		<path fill="#FFFFFF" d="M357.5,20.5c0,0.3-0.2,0.5-0.6,0.5l0,0c-0.3,0-0.5-0.2-0.5-0.5V4.8c0-0.3,0.2-0.6,0.5-0.6l0,0
			c0.3,0,0.6,0.2,0.6,0.6V20.5z"/>
		<path fill="#FFFFFF" d="M359.4,23.8c0,0.3-0.2,0.6-0.6,0.6l0,0c-0.3,0-0.6-0.2-0.6-0.6V1.5c0-0.3,0.2-0.6,0.6-0.6l0,0
			c0.3,0,0.6,0.2,0.6,0.6V23.8z"/>
		<path fill="#FFFFFF" d="M361.4,22.3c0,0.3-0.2,0.6-0.6,0.6l0,0c-0.3,0-0.6-0.2-0.6-0.6V3c0-0.3,0.2-0.6,0.6-0.6l0,0
			c0.3,0,0.6,0.2,0.6,0.6V22.3z"/>
		<path fill="#FFFFFF" d="M363.3,22.3c0,0.3-0.2,0.6-0.6,0.6l0,0c-0.3,0-0.6-0.2-0.6-0.6V3c0-0.3,0.2-0.6,0.6-0.6l0,0
			c0.3,0,0.6,0.2,0.6,0.6V22.3z"/>
		<path fill="#FFFFFF" d="M365.3,24.5c0,0.3-0.2,0.6-0.6,0.6l0,0c-0.3,0-0.6-0.2-0.6-0.6V0.8c0-0.3,0.2-0.6,0.6-0.6l0,0
			c0.3,0,0.6,0.2,0.6,0.6V24.5z"/>
		<path fill="#FFFFFF" d="M367.2,22.3c0,0.3-0.2,0.6-0.5,0.6l0,0c-0.3,0-0.6-0.2-0.6-0.6V3c0-0.3,0.2-0.6,0.6-0.6l0,0
			c0.3,0,0.5,0.2,0.5,0.6V22.3z"/>
		<path fill="#FFFFFF" d="M369.1,24.1c0,0.3-0.2,0.6-0.6,0.6l0,0c-0.3,0-0.6-0.2-0.6-0.6v-23c0-0.3,0.2-0.6,0.6-0.6l0,0
			c0.3,0,0.6,0.2,0.6,0.6V24.1z"/>
		<path fill="#FFFFFF" d="M301.6,17.6c0,0.3-0.2,0.6-0.6,0.6l0,0c-0.3,0-0.6-0.2-0.6-0.6V7.7c0-0.3,0.2-0.6,0.6-0.6l0,0
			c0.3,0,0.6,0.2,0.6,0.6V17.6z"/>
		<path fill="#FFFFFF" d="M299.7,20c0,0.3-0.2,0.6-0.6,0.6l0,0c-0.3,0-0.6-0.2-0.6-0.6V5.3c0-0.3,0.2-0.5,0.6-0.5l0,0
			c0.3,0,0.6,0.2,0.6,0.5V20z"/>
		<path fill="#FFFFFF" d="M297.8,17.4c0,0.3-0.2,0.6-0.6,0.6l0,0c-0.3,0-0.6-0.2-0.6-0.6V7.9c0-0.3,0.2-0.6,0.6-0.6l0,0
			c0.3,0,0.6,0.2,0.6,0.6V17.4z"/>
		<path fill="#FFFFFF" d="M295.8,18.3c0,0.3-0.2,0.5-0.6,0.5l0,0c-0.3,0-0.6-0.2-0.6-0.5V7c0-0.3,0.2-0.6,0.6-0.6l0,0
			c0.3,0,0.6,0.2,0.6,0.6V18.3z"/>
		<path fill="#FFFFFF" d="M293.9,17c0,0.3-0.2,0.5-0.6,0.5l0,0c-0.3,0-0.6-0.2-0.6-0.5V8.3c0-0.3,0.2-0.5,0.6-0.5l0,0
			c0.3,0,0.6,0.2,0.6,0.5V17z"/>
		<path fill="#FFFFFF" d="M292,18.3c0,0.3-0.2,0.6-0.6,0.6l0,0c-0.3,0-0.6-0.2-0.6-0.6V7.1c0-0.3,0.2-0.6,0.6-0.6l0,0
			c0.3,0,0.6,0.2,0.6,0.6V18.3z"/>
		<path fill="#FFFFFF" d="M290.1,19.4c0,0.3-0.2,0.6-0.6,0.6l0,0c-0.3,0-0.6-0.2-0.6-0.6V5.9c0-0.3,0.2-0.6,0.6-0.6l0,0
			c0.3,0,0.6,0.2,0.6,0.6V19.4z"/>
		<path fill="#FFFFFF" d="M288.1,18.5c0,0.3-0.2,0.6-0.6,0.6l0,0c-0.3,0-0.6-0.2-0.6-0.6V6.8c0-0.3,0.2-0.6,0.6-0.6l0,0
			c0.3,0,0.6,0.2,0.6,0.6V18.5z"/>
		<path fill="#FFFFFF" d="M286.2,19.4c0,0.3-0.2,0.6-0.6,0.6l0,0c-0.3,0-0.6-0.2-0.6-0.6V5.9c0-0.3,0.2-0.6,0.6-0.6l0,0
			c0.3,0,0.6,0.2,0.6,0.6V19.4z"/>
		<path fill="#FFFFFF" d="M284.4,23.8c0,0.3-0.2,0.5-0.6,0.5l0,0c-0.3,0-0.6-0.2-0.6-0.5V1.5c0-0.3,0.2-0.6,0.6-0.6l0,0
			c0.3,0,0.6,0.2,0.6,0.6V23.8z"/>
		<path fill="#FFFFFF" d="M282.4,23.8c0,0.3-0.2,0.5-0.6,0.5l0,0c-0.3,0-0.6-0.2-0.6-0.5V1.5c0-0.3,0.2-0.6,0.6-0.6l0,0
			c0.3,0,0.6,0.2,0.6,0.6V23.8z"/>
		<path fill="#FFFFFF" d="M280.5,22.2c0,0.3-0.2,0.6-0.6,0.6l0,0c-0.3,0-0.6-0.2-0.6-0.6v-19c0-0.3,0.2-0.6,0.6-0.6l0,0
			c0.3,0,0.6,0.2,0.6,0.6V22.2z"/>
		<path fill="#FFFFFF" d="M278.6,20c0,0.3-0.2,0.6-0.6,0.6l0,0c-0.3,0-0.6-0.2-0.6-0.6V5.3c0-0.3,0.2-0.6,0.6-0.6l0,0
			c0.3,0,0.6,0.2,0.6,0.6V20z"/>
		<path fill="#FFFFFF" d="M211.1,18c0,0.3-0.2,0.6-0.6,0.6l0,0c-0.3,0-0.6-0.2-0.6-0.6V7.3c0-0.3,0.2-0.6,0.6-0.6l0,0
			c0.3,0,0.6,0.2,0.6,0.6V18z"/>
		<path fill="#FFFFFF" d="M213,21.3c0,0.3-0.2,0.6-0.6,0.6l0,0c-0.3,0-0.6-0.2-0.6-0.6V4c0-0.3,0.2-0.6,0.6-0.6l0,0
			c0.3,0,0.6,0.2,0.6,0.6V21.3z"/>
		<path fill="#FFFFFF" d="M215,21.3c0,0.3-0.2,0.6-0.6,0.6l0,0c-0.3,0-0.6-0.2-0.6-0.6V4c0-0.3,0.2-0.6,0.6-0.6l0,0
			c0.3,0,0.6,0.2,0.6,0.6V21.3z"/>
		<path fill="#FFFFFF" d="M216.9,23.9c0,0.3-0.2,0.6-0.6,0.6l0,0c-0.3,0-0.6-0.2-0.6-0.6V1.4c0-0.3,0.2-0.5,0.6-0.5l0,0
			c0.3,0,0.6,0.2,0.6,0.5V23.9z"/>
		<path fill="#FFFFFF" d="M218.8,23.9c0,0.3-0.2,0.6-0.6,0.6l0,0c-0.3,0-0.6-0.2-0.6-0.6V1.4c0-0.3,0.2-0.5,0.6-0.5l0,0
			c0.3,0,0.6,0.2,0.6,0.5V23.9z"/>
		<path fill="#FFFFFF" d="M220.7,22.3c0,0.3-0.2,0.6-0.6,0.6l0,0c-0.3,0-0.6-0.2-0.6-0.6V3.1c0-0.3,0.2-0.6,0.6-0.6l0,0
			c0.3,0,0.6,0.2,0.6,0.6V22.3z"/>
		<path fill="#FFFFFF" d="M222.7,22.8c0,0.3-0.2,0.6-0.6,0.6l0,0c-0.3,0-0.6-0.2-0.6-0.6V2.5c0-0.3,0.2-0.6,0.6-0.6l0,0
			c0.3,0,0.6,0.2,0.6,0.6V22.8z"/>
		<path fill="#FFFFFF" d="M224.6,22.8c0,0.3-0.2,0.6-0.6,0.6l0,0c-0.3,0-0.6-0.2-0.6-0.6V2.5c0-0.3,0.2-0.6,0.6-0.6l0,0
			c0.3,0,0.6,0.2,0.6,0.6V22.8z"/>
		<path fill="#FFFFFF" d="M226.5,20.8c0,0.3-0.2,0.6-0.6,0.6l0,0c-0.3,0-0.6-0.2-0.6-0.6V4.5c0-0.3,0.2-0.6,0.6-0.6l0,0
			c0.3,0,0.6,0.2,0.6,0.6V20.8z"/>
		<path fill="#FFFFFF" d="M228.4,19.7c0,0.3-0.2,0.6-0.6,0.6l0,0c-0.3,0-0.6-0.2-0.6-0.6V5.6c0-0.3,0.2-0.6,0.6-0.6l0,0
			c0.3,0,0.6,0.2,0.6,0.6V19.7z"/>
		<path fill="#FFFFFF" d="M230.4,19.7c0,0.3-0.2,0.6-0.6,0.6l0,0c-0.3,0-0.6-0.2-0.6-0.6V5.6c0-0.3,0.2-0.6,0.6-0.6l0,0
			c0.3,0,0.6,0.2,0.6,0.6V19.7z"/>
		<path fill="#FFFFFF" d="M232.3,18c0,0.3-0.2,0.6-0.6,0.6l0,0c-0.3,0-0.6-0.2-0.6-0.6V7.3c0-0.3,0.2-0.6,0.6-0.6l0,0
			c0.3,0,0.6,0.2,0.6,0.6V18z"/>
		<path fill="#FFFFFF" d="M234.2,18c0,0.3-0.2,0.6-0.6,0.6l0,0c-0.3,0-0.6-0.2-0.6-0.6V7.3c0-0.3,0.2-0.6,0.6-0.6l0,0
			c0.3,0,0.6,0.2,0.6,0.6V18z"/>
		<path fill="#FFFFFF" d="M236.2,18.7c0,0.3-0.2,0.6-0.6,0.6l0,0c-0.3,0-0.6-0.2-0.6-0.6V6.6c0-0.3,0.2-0.6,0.6-0.6l0,0
			c0.3,0,0.6,0.2,0.6,0.6V18.7z"/>
		<path fill="#FFFFFF" d="M238.1,17.7c0,0.3-0.2,0.6-0.6,0.6l0,0c-0.3,0-0.6-0.2-0.6-0.6V7.6c0-0.3,0.2-0.5,0.6-0.5l0,0
			c0.3,0,0.6,0.2,0.6,0.5V17.7z"/>
		<path fill="#FFFFFF" d="M240,17.7c0,0.3-0.2,0.6-0.6,0.6l0,0c-0.3,0-0.6-0.2-0.6-0.6V7.6c0-0.3,0.2-0.5,0.6-0.5l0,0
			c0.3,0,0.6,0.2,0.6,0.5V17.7z"/>
		<path fill="#FFFFFF" d="M241.9,21.2c0,0.3-0.2,0.6-0.6,0.6l0,0c-0.3,0-0.6-0.2-0.6-0.6v-17c0-0.3,0.2-0.6,0.6-0.6l0,0
			c0.3,0,0.6,0.2,0.6,0.6V21.2z"/>
		<path fill="#FFFFFF" d="M243.9,23.4c0,0.3-0.2,0.6-0.6,0.6l0,0c-0.3,0-0.6-0.2-0.6-0.6V1.9c0-0.3,0.2-0.6,0.6-0.6l0,0
			c0.3,0,0.6,0.2,0.6,0.6V23.4z"/>
		<path fill="#FFFFFF" d="M245.8,21.8c0,0.3-0.2,0.6-0.5,0.6l0,0c-0.3,0-0.6-0.2-0.6-0.6V3.5c0-0.3,0.2-0.6,0.6-0.6l0,0
			c0.3,0,0.5,0.2,0.5,0.6V21.8z"/>
		<path fill="#FFFFFF" d="M247.7,19.5c0,0.3-0.2,0.6-0.6,0.6l0,0c-0.3,0-0.6-0.2-0.6-0.6V5.8c0-0.3,0.2-0.6,0.6-0.6l0,0
			c0.3,0,0.6,0.2,0.6,0.6V19.5z"/>
		<path fill="#FFFFFF" d="M249.6,20.9c0,0.3-0.2,0.6-0.6,0.6l0,0c-0.3,0-0.6-0.2-0.6-0.6V4.4c0-0.3,0.2-0.6,0.6-0.6l0,0
			c0.3,0,0.6,0.2,0.6,0.6V20.9z"/>
		<path fill="#FFFFFF" d="M251.6,18.9c0,0.3-0.2,0.5-0.6,0.5l0,0c-0.3,0-0.6-0.2-0.6-0.5V6.4c0-0.3,0.2-0.6,0.6-0.6l0,0
			c0.3,0,0.6,0.2,0.6,0.6V18.9z"/>
		<path fill="#FFFFFF" d="M253.5,22c0,0.3-0.2,0.6-0.6,0.6l0,0c-0.3,0-0.6-0.2-0.6-0.6V3.3c0-0.3,0.2-0.6,0.6-0.6l0,0
			c0.3,0,0.6,0.2,0.6,0.6V22z"/>
		<path fill="#FFFFFF" d="M255.4,22.8c0,0.3-0.2,0.6-0.6,0.6l0,0c-0.3,0-0.6-0.2-0.6-0.6V2.5c0-0.3,0.2-0.6,0.6-0.6l0,0
			c0.3,0,0.6,0.2,0.6,0.6V22.8z"/>
		<path fill="#FFFFFF" d="M257.3,24.8c0,0.3-0.2,0.5-0.6,0.5l0,0c-0.3,0-0.6-0.2-0.6-0.5V0.6c0-0.3,0.2-0.6,0.6-0.6l0,0
			c0.3,0,0.6,0.2,0.6,0.6V24.8z"/>
		<path fill="#FFFFFF" d="M259.3,23.6c0,0.3-0.2,0.5-0.6,0.5l0,0c-0.3,0-0.6-0.2-0.6-0.5V1.7c0-0.3,0.2-0.5,0.6-0.5l0,0
			c0.3,0,0.6,0.2,0.6,0.5V23.6z"/>
		<path fill="#FFFFFF" d="M261.2,21.7c0,0.3-0.2,0.6-0.6,0.6l0,0c-0.3,0-0.6-0.2-0.6-0.6V3.6c0-0.3,0.2-0.6,0.6-0.6l0,0
			c0.3,0,0.6,0.2,0.6,0.6V21.7z"/>
		<path fill="#FFFFFF" d="M263.1,18c0,0.3-0.2,0.6-0.6,0.6l0,0c-0.3,0-0.6-0.2-0.6-0.6V7.3c0-0.3,0.2-0.6,0.6-0.6l0,0
			c0.3,0,0.6,0.2,0.6,0.6V18z"/>
		<path fill="#FFFFFF" d="M265.1,20.5c0,0.3-0.2,0.5-0.6,0.5l0,0c-0.3,0-0.6-0.2-0.6-0.5V4.8c0-0.3,0.2-0.6,0.6-0.6l0,0
			c0.3,0,0.6,0.2,0.6,0.6V20.5z"/>
		<path fill="#FFFFFF" d="M267,23.8c0,0.3-0.2,0.6-0.6,0.6l0,0c-0.3,0-0.6-0.2-0.6-0.6V1.5c0-0.3,0.2-0.6,0.6-0.6l0,0
			c0.3,0,0.6,0.2,0.6,0.6V23.8z"/>
		<path fill="#FFFFFF" d="M268.9,22.3c0,0.3-0.2,0.6-0.6,0.6l0,0c-0.3,0-0.6-0.2-0.6-0.6V3c0-0.3,0.2-0.6,0.6-0.6l0,0
			c0.3,0,0.6,0.2,0.6,0.6V22.3z"/>
		<path fill="#FFFFFF" d="M270.8,19.1c0,0.3-0.2,0.6-0.6,0.6l0,0c-0.3,0-0.6-0.2-0.6-0.6v-13c0-0.3,0.2-0.6,0.6-0.6l0,0
			c0.3,0,0.6,0.2,0.6,0.6V19.1z"/>
		<path fill="#FFFFFF" d="M272.8,16.8c0,0.3-0.2,0.6-0.6,0.6l0,0c-0.3,0-0.6-0.2-0.6-0.6V8.5c0-0.3,0.2-0.6,0.6-0.6l0,0
			c0.3,0,0.6,0.2,0.6,0.6V16.8z"/>
		<path fill="#FFFFFF" d="M274.7,22.3c0,0.3-0.2,0.6-0.6,0.6l0,0c-0.3,0-0.6-0.2-0.6-0.6V3c0-0.3,0.2-0.6,0.6-0.6l0,0
			c0.3,0,0.6,0.2,0.6,0.6V22.3z"/>
		<path fill="#FFFFFF" d="M276.7,24.1c0,0.3-0.2,0.6-0.6,0.6l0,0c-0.3,0-0.6-0.2-0.6-0.6v-23c0-0.3,0.2-0.6,0.6-0.6l0,0
			c0.3,0,0.6,0.2,0.6,0.6V24.1z"/>
		<path fill="#FFFFFF" d="M209.2,17.6c0,0.3-0.2,0.6-0.6,0.6l0,0c-0.3,0-0.5-0.2-0.5-0.6V7.7c0-0.3,0.2-0.6,0.5-0.6l0,0
			c0.3,0,0.6,0.2,0.6,0.6V17.6z"/>
		<path fill="#FFFFFF" d="M207.2,17.4c0,0.3-0.2,0.6-0.6,0.6l0,0c-0.3,0-0.6-0.2-0.6-0.6V7.9c0-0.3,0.2-0.6,0.6-0.6l0,0
			c0.3,0,0.6,0.2,0.6,0.6V17.4z"/>
		<path fill="#FFFFFF" d="M205.3,17.4c0,0.3-0.2,0.6-0.6,0.6l0,0c-0.3,0-0.6-0.2-0.6-0.6V7.9c0-0.3,0.2-0.6,0.6-0.6l0,0
			c0.3,0,0.6,0.2,0.6,0.6V17.4z"/>
		<path fill="#FFFFFF" d="M203.4,16.1c0,0.3-0.2,0.6-0.6,0.6l0,0c-0.3,0-0.6-0.2-0.6-0.6V9.2c0-0.3,0.2-0.6,0.6-0.6l0,0
			c0.3,0,0.6,0.2,0.6,0.6V16.1z"/>
		<path fill="#FFFFFF" d="M201.5,17c0,0.3-0.2,0.5-0.6,0.5l0,0c-0.3,0-0.6-0.2-0.6-0.5V8.3c0-0.3,0.2-0.5,0.6-0.5l0,0
			c0.3,0,0.6,0.2,0.6,0.5V17z"/>
		<path fill="#FFFFFF" d="M199.5,18.3c0,0.3-0.2,0.6-0.6,0.6l0,0c-0.3,0-0.6-0.2-0.6-0.6V7.1c0-0.3,0.2-0.6,0.6-0.6l0,0
			c0.3,0,0.6,0.2,0.6,0.6V18.3z"/>
		<path fill="#FFFFFF" d="M197.6,19.4c0,0.3-0.2,0.6-0.6,0.6l0,0c-0.3,0-0.6-0.2-0.6-0.6V5.9c0-0.3,0.2-0.6,0.6-0.6l0,0
			c0.3,0,0.6,0.2,0.6,0.6V19.4z"/>
		<path fill="#FFFFFF" d="M195.7,21.5c0,0.3-0.2,0.6-0.6,0.6l0,0c-0.3,0-0.6-0.2-0.6-0.6V3.8c0-0.3,0.2-0.6,0.6-0.6l0,0
			c0.3,0,0.6,0.2,0.6,0.6V21.5z"/>
		<path fill="#FFFFFF" d="M193.7,19.4c0,0.3-0.2,0.6-0.6,0.6l0,0c-0.3,0-0.6-0.2-0.6-0.6V5.9c0-0.3,0.2-0.6,0.6-0.6l0,0
			c0.3,0,0.6,0.2,0.6,0.6V19.4z"/>
		<path fill="#FFFFFF" d="M192,23.8c0,0.3-0.2,0.5-0.6,0.5l0,0c-0.3,0-0.6-0.2-0.6-0.5V1.5c0-0.3,0.2-0.6,0.6-0.6l0,0
			c0.3,0,0.6,0.2,0.6,0.6V23.8z"/>
		<path fill="#FFFFFF" d="M190,23.8c0,0.3-0.2,0.5-0.6,0.5l0,0c-0.3,0-0.6-0.2-0.6-0.5V1.5c0-0.3,0.2-0.6,0.6-0.6l0,0
			c0.3,0,0.6,0.2,0.6,0.6V23.8z"/>
		<path fill="#FFFFFF" d="M188.1,22.2c0,0.3-0.2,0.6-0.6,0.6l0,0c-0.3,0-0.6-0.2-0.6-0.6v-19c0-0.3,0.2-0.6,0.6-0.6l0,0
			c0.3,0,0.6,0.2,0.6,0.6V22.2z"/>
		<path fill="#FFFFFF" d="M186.1,20c0,0.3-0.2,0.6-0.6,0.6l0,0c-0.3,0-0.6-0.2-0.6-0.6V5.3c0-0.3,0.2-0.6,0.6-0.6l0,0
			c0.3,0,0.6,0.2,0.6,0.6V20z"/>
	</g>
</g>
</svg>
