<?xml version="1.0" encoding="utf-8"?>
<!-- Generator: Adobe Illustrator 18.1.1, SVG Export Plug-In . SVG Version: 6.00 Build 0)  -->
<!DOCTYPE svg PUBLIC "-//W3C//DTD SVG 1.1//EN" "http://www.w3.org/Graphics/SVG/1.1/DTD/svg11.dtd">
<svg version="1.1" id="Capa_1" xmlns="http://www.w3.org/2000/svg" xmlns:xlink="http://www.w3.org/1999/xlink" x="0px" y="0px"
	 viewBox="0 0 46.1 46.1" enable-background="new 0 0 46.1 46.1" xml:space="preserve">
<circle display="none" fill-rule="evenodd" clip-rule="evenodd" fill="#A87A13" cx="22.9" cy="23.1" r="22"/>
<path fill="#EFE6D9" d="M23,46C10.3,46,0,35.7,0,23C0,10.3,10.3,0,23,0s23,10.3,23,23C46,35.7,35.7,46,23,46z M23,2
	C11.4,2,2,11.4,2,23c0,11.6,9.4,21,21,21c11.6,0,21-9.4,21-21C44,11.4,34.6,2,23,2z"/>
<g>
	<g>
		<path fill="#FFFFFF" d="M21.6,18.1v1.7H18v2.4h3.4v1.7H18v2.7h3.7v1.7H16v-10H21.6z"/>
		<path fill="#FFFFFF" d="M25.8,18.1l2.4,6.9h0v-6.9h1.8v10h-2.3l-2.5-7h0v7h-1.8v-10H25.8z"/>
	</g>
</g>
<g display="none">
	<g display="inline">
		<path fill="#FFFFFF" d="M15.9,18.1h3.3c0.7,0,1.3,0.1,1.7,0.3s0.8,0.6,1,1c0.2,0.4,0.4,0.9,0.5,1.5s0.1,1.3,0.1,2
			c0,0.9-0.1,1.6-0.2,2.3s-0.3,1.2-0.6,1.6c-0.3,0.4-0.6,0.7-1.1,0.9s-1,0.3-1.7,0.3h-3.2V18.1z M17.9,26.6h0.9
			c0.4,0,0.6-0.1,0.9-0.2c0.2-0.1,0.4-0.3,0.5-0.6s0.2-0.6,0.3-1.1s0.1-1,0.1-1.7c0-0.6,0-1.1-0.1-1.5s-0.1-0.8-0.2-1.1
			c-0.1-0.3-0.3-0.5-0.5-0.6c-0.2-0.1-0.5-0.2-0.9-0.2h-0.9V26.6z"/>
		<path fill="#FFFFFF" d="M30.1,18.1v1.7h-3.6v2.4h3.4v1.7h-3.4v2.7h3.7v1.7h-5.7v-10H30.1z"/>
	</g>
</g>
</svg>
