<?xml version="1.0" encoding="utf-8"?>
<!-- Generator: Adobe Illustrator 18.1.1, SVG Export Plug-In . SVG Version: 6.00 Build 0)  -->
<!DOCTYPE svg PUBLIC "-//W3C//DTD SVG 1.1//EN" "http://www.w3.org/Graphics/SVG/1.1/DTD/svg11.dtd">
<svg version="1.1" id="Capa_1" xmlns="http://www.w3.org/2000/svg" xmlns:xlink="http://www.w3.org/1999/xlink" x="0px" y="0px"
	 viewBox="0 0 44 44" enable-background="new 0 0 44 44" xml:space="preserve">
<path id="nzEStQ.tif_4_" fill-rule="evenodd" clip-rule="evenodd" fill="#FFFFFF" d="M26,43.5c0.6-0.9,1.3-1.8,1.8-2.7
	c1.6-3,1.1-6.4-1.2-8.8c-1.2-1.3-2.6-2.3-4-3.5c-1.7-1.4-1.8-2.8-0.2-4.4c0.5-0.5,1.1-1,1.7-1.5c3.8-3.3,4-8.5,0.5-12.1
	c-0.3-0.3-0.5-0.5-1-1c2.4,0.5,4.3-0.4,6.1-1.9c-0.4,0-0.7-0.1-0.9-0.1c-3.5,0-6.9,0-10.4,0c-2.9,0.1-5.6,0.7-8,2.5
	c-4.1,3.1-5,8.9-1.8,12.6c1.6,1.9,3.8,2.8,6.3,2.9c0.6,0,1.1,0,1.8,0c-0.8,2-0.3,3.6,0.9,5c-2.3,0.5-4.6,0.8-6.8,1.4
	C8.4,32.7,6.4,34,5.1,36c-5-5.4-6.9-14.8-3.4-22.9c3.9-8.8,12.8-14,22.6-13.1C31.9,0.8,40.6,7.2,42,13.4c-1.3,0-2.6,0-4,0
	c0-1.9,0-3.7,0-5.7c-0.8,0-1.5-0.1-2.2,0c-0.2,0-0.4,0.5-0.5,0.7c0,1.3,0,2.6,0,3.9c0,0.3,0,0.6-0.1,1c-1.6,0-3.2,0-4.7,0
	c-0.8,0-1.1,0.2-1,1c0,0.2,0,0.3,0,0.5c-0.1,0.9,0.2,1.2,1.1,1.2c1.5-0.1,3,0,4.7,0c0,1.5,0,2.9,0,4.3c0,1.7-0.2,1.5,1.6,1.5
	c0.3,0,0.6,0,1,0c0-1.9,0-3.8,0-5.8c1.7,0,3.2,0,4.7,0c0.2,0,0.5,0.5,0.6,0.8c1.7,7.6-0.1,14.4-5.3,20.2c-3.1,3.4-7,5.5-11.5,6.5
	C26.3,43.5,26.2,43.5,26,43.5z M22.3,43.7c2.9-1.3,3.7-5,1.7-7.5c-0.6-0.7-1.4-1.3-2-1.9c-1.5-1.5-3.2-2.2-5.4-1.7
	c-1.8,0.3-3.7,0.6-5.3,1.5c-1.6,0.9-2.5,2.3-2.6,4.1c-0.1,0.7,0,1.3,0.7,1.8c3.4,2.3,7.2,3.6,11.6,3.9C21.2,43.9,21.8,44,22.3,43.7z
	 M14.5,22.9c2.8,2.3,6.9,1,7.6-2.4c0.2-0.9,0.2-1.8,0.1-2.7c-0.3-2.6-1.1-5.1-3.1-7c-1-1-2.2-1.5-3.7-1.3c-2.8,0.5-4.1,2.3-4.1,5.5
	C11.3,18.2,12.6,21.3,14.5,22.9z"/>
</svg>
