<svg xmlns="http://www.w3.org/2000/svg" viewBox="0 0 42 42.6">
  <g fill="#FFF">
    <path d="M28.5 21.1c0 4.2-3.4 7.6-7.5 7.6s-7.5-3.5-7.5-7.7c0-.6.1-1.1.2-2.1H12v10.8c0 .5 0 1.2.5 1.2h16.9c.5 0 1.5-.7 1.5-1.2V19h-2.7c.2 1 .3 1.5.3 2.1z"/>
    <circle cx="21" cy="21.3" r="4.7"/>
    <path d="M29.5 12h-2.8c-.5 0-.6.4-.6.9v2.8c0 .5.1 1.3.6 1.3h2.8c.5 0 1.5-.8 1.5-1.3v-2.8c0-.5-1-.9-1.5-.9z"/>
    <path d="M21 .3C9.4.3 0 9.7 0 21.3s9.4 21 21 21 21-9.4 21-21-9.4-21-21-21zm12 29.9c0 1.6-1.3 2.8-2.8 2.8H11.8C10.3 33 9 31.7 9 30.2V11.8C9 10.3 10.3 9 11.8 9h18.4c1.6 0 2.8 1.3 2.8 2.8v18.4z"/>
  </g>
</svg>
