<svg xmlns="http://www.w3.org/2000/svg" viewBox="0 0 42 42"><path fill="#FFF" d="M21 0C9.4 0 0 9.4 0 21c0 8.6 5.2 16 12.6 19.2-.1-1.5 0-3.2.4-4.8.4-1.7 2.7-11.4 2.7-11.4s-.7-1.4-.7-3.4c0-3.1 1.8-5.4 4.1-5.4 1.9 0 2.8 1.4 2.8 3.2 0 1.9-1.2 4.8-1.9 7.5-.5 2.2 1.1 4 3.3 4 4 0 6.7-5.1 6.7-11.2 0-4.6-3.1-8-8.7-8-6.4 0-10.3 4.8-10.3 10.1 0 1.8.5 3.1 1.4 4.1.4.5.4.6.3 1.2-.1.4-.3 1.3-.4 1.7-.1.5-.6.7-1.1.5-2.9-1.2-4.3-4.4-4.3-8 0-6 5-13.1 15-13.1 8 0 13.3 5.8 13.3 12 0 8.2-4.6 14.4-11.3 14.4-2.3 0-4.4-1.2-5.1-2.6 0 0-1.2 4.8-1.5 5.8-.4 1.6-1.3 3.2-2.1 4.5 1.9.6 3.9.9 6 .9 11.6 0 21-9.4 21-21C42 9.4 32.6 0 21 0z"/></svg>