<svg xmlns="http://www.w3.org/2000/svg" viewBox="0 0 42 42">
  <path fill="#FFF" d="M21.1 0C9.5 0 .1 9.4.1 21s9.4 21 21 21 21-9.4 21-21-9.4-21-21-21zm13.7 13.8c-.3.3-.5.6-.5 1 0 6.1-2.3 11.2-6.8 15.2-3.4 3-7.4 4.5-11.9 4.6-3.8.1-7.3-.7-10.5-2.5-.2-.1-.4-.2-.6-.5 3.5.2 6.7-.4 9.7-2.6-3.1-.4-5.2-2.6-6.3-4.6h2.7c-3.2-2-4.9-3.8-5.1-7.2 1 .3 1.9.4 2.8.7C7 16.7 6 15.2 5.7 13.5c-.3-1.7-.1-3.4.8-5 3.7 4.4 8.4 6.8 13.9 7.2.1-1.2 0-2.3.3-3.3 1.3-5 7.3-6.8 11.1-3.5.5.4.9.5 1.4.3 1.1-.4 2.3-.9 3.4-1.3-.1.9-.8 2-2.5 3.6 1.1-.3 2.2-.6 3.4-.9-.2.3-.3.5-.4.7-.7.9-1.4 1.7-2.3 2.5z"/>
</svg>
