<?xml version="1.0" encoding="utf-8"?>
<!-- Generator: Adobe Illustrator 18.1.1, SVG Export Plug-In . SVG Version: 6.00 Build 0)  -->
<!DOCTYPE svg PUBLIC "-//W3C//DTD SVG 1.1//EN" "http://www.w3.org/Graphics/SVG/1.1/DTD/svg11.dtd">
<svg version="1.1" id="Capa_1" xmlns="http://www.w3.org/2000/svg" xmlns:xlink="http://www.w3.org/1999/xlink" x="0px" y="0px"
	 viewBox="0 0 1440 1440" enable-background="new 0 0 1440 1440" xml:space="preserve">
<g>
	<path fill="#FFFFFF" d="M718.7,552.4c15.1,0,23-12.7,20.4-38.2l0-102.2c2.6-25.6-5.4-37.5-20.5-37.5c-15.1,0-23,12-20.4,37.5v102.2
		C695.7,539.7,703.6,552.4,718.7,552.4z"/>
	<path fill="#FFFFFF" d="M823.2,832.6c-17,0-33.9,10.5-48.9,28.9l0.1-111.7h-46v342.5h46l0.1-25.7c15.5,19.1,32.3,29,48.8,29
		c18.4,0,31.9-9.9,38.1-28.9c3.1-10.8,5.1-27.5,5.1-51.1V913.4c0-24.2-3.1-40.7-6.2-51C854,843.2,841.6,832.6,823.2,832.6z
		 M817.8,1018.1c0,25.6-6,35.4-19.4,35.4c-7.6,0-16.4-3.9-24.1-11.7l0.1-155c7.7-7.6,16.5-11.7,24.1-11.7c13.3,0,19.4,7.5,19.4,33.1
		V1018.1z"/>
	<polygon fill="#FFFFFF" points="562.3,749.8 401.3,749.8 401.3,798.4 454.9,798.4 454.9,1092.3 506,1092.3 506,798.4 562.3,798.4 	
		"/>
	<path fill="#FFFFFF" d="M720,0C333.9-6.5,6.6,310.9,0,703.6c-6.5,409.1,324,726.5,706.9,736.4c386.2,6.5,729.8-304.4,733.1-713.5
		C1443.3,310.9,1102.9-6.5,720,0z M823.5,332.7h48.6v191.7c0,10.8,0,15.3,0,17.9c1.1,7.2,4.2,9.8,10.4,9.8c9.3,0,17.7-8.1,28-22.6
		V332.7H959v258.1h-48.6v-28.1c-18.4,21.1-34,31.8-51,31.8c-14.9,0-25.3-7-30.5-19.8c-3.2-7.7-5.4-19.8-5.4-37.6V332.7z
		 M718.7,330.8c20.4,0,40.7,7.2,53.7,24.9c9.8,13,15.3,33.8,15.3,61.3v92c0,27.4-4.5,46.4-14.3,59.3c-12.9,17.6-34.2,26.9-54.7,26.9
		c-20.4,0-41.4-9.3-54.3-26.9c-9.9-12.9-14.7-31.9-14.7-59.3l0-91.8c0-27.6,5.3-48.5,15.3-61.6C678,338.1,695.6,330.8,718.7,330.8z
		 M534.7,245.8l35.9,134.6l35.7-134.6h53.7L596,450.3v140.6h-51.1V450.3c0,0-53-172.3-63.9-204.5H534.7z M1101.6,955.7
		c0,61.5-7.6,123-7.6,123s-7.5,52.4-30.3,75.4c-29,30.3-61.6,30.4-76.5,32.2c-106.8,7.7-267.2,7.9-267.2,7.9s-198.4-1.8-259.5-7.6
		c-17-3.2-55.1-2.2-84.2-32.5c-22.9-23.1-30.3-75.4-30.3-75.4s-7.6-61.5-7.6-123v-57.6c0-61.5,7.6-123,7.6-123s7.4-52.4,30.3-75.4
		c29-30.3,61.5-30.4,76.5-32.2c106.8-7.7,267-7.7,267-7.7h0.3c0,0,160.2,0,267,7.7c14.9,1.8,47.5,1.9,76.5,32.2
		c22.9,23.1,30.3,75.4,30.3,75.4s7.6,61.5,7.6,123V955.7z"/>
	<path fill="#FFFFFF" d="M641.5,1030.9c-10.3,14.5-18.7,22.6-28,22.6c-6.2,0-9.2-2.6-10.4-9.8c0-2.6,0-7,0-17.9V836.7h-48.6v201.9
		c0,17.7,2.2,29.8,5.4,37.6c5.2,12.7,15.6,19.8,30.5,19.8c17,0,32.6-10.7,51-31.8v28.1H690V836.7h-48.6V1030.9z"/>
	<path fill="#FFFFFF" d="M1037.7,972.1l0-52.2c0-27.3-5.4-47.3-15.1-60.2c-13-17.5-31.4-26.7-54.6-26.7c-23.6,0-42,9.2-55.4,26.7
		c-9.8,12.9-15.6,34-15.6,61.3v89.5c0,27.1,6.3,46.1,16.1,58.9c13.4,17.5,31.8,26.2,56,26.2c24.2,0,43.2-9.1,56-27.7
		c5.6-8.2,9.3-17.5,10.8-27.7c0.4-4.6,1.6-15.2,1.6-30.1v-7.2h-48.6c0,18.6,0.1,29.6-0.3,32.1c-2.6,12.4-9.3,18.6-20.7,18.6
		c-15.9,0-22.6-11.9-22.4-35.5v-45.9H1037.7z M945.6,905.6c0-23.9,6.5-30.4,22-30.4c15.3,0,21.4,7.1,21.4,30.7v27.9l-43.4,0V905.6z"
		/>
</g>
</svg>
