<?xml version="1.0" encoding="utf-8"?>
<!-- Generator: Adobe Illustrator 18.1.1, SVG Export Plug-In . SVG Version: 6.00 Build 0)  -->
<!DOCTYPE svg PUBLIC "-//W3C//DTD SVG 1.1//EN" "http://www.w3.org/Graphics/SVG/1.1/DTD/svg11.dtd">
<svg version="1.1" id="Capa_1" xmlns="http://www.w3.org/2000/svg" xmlns:xlink="http://www.w3.org/1999/xlink" x="0px" y="0px"
	 viewBox="0 0 80 79" enable-background="new 0 0 80 79" xml:space="preserve">
<g>
	<g id="XMLID_1_">
		<path id="XMLID_9_" fill="#FFFFFF" d="M43.3,50.2h-5.9v28.1h5.9V50.2z"/>
		<path id="XMLID_8_" fill="#FFFFFF" d="M20,30.5v-1.3c0-1.4,0.2-4,2.2-4.1c1.7-0.2,2.4,1.3,2.4,2.8c0,2.1-0.5,3.3-1.8,4.8l-2.9,3
			c-3,3.3-5.9,7.3-5.9,11.9v0.9h17v-5.1h-9.8c0.3-1.6,2.7-3.9,3.7-4.9l2.5-2.4c2.4-2.5,3.6-4.5,3.6-8.1c0-5.2-3.1-7.7-8.2-7.7
			C17,20.3,14,23.5,14,29v1.5H20z"/>
		<path id="XMLID_7_" fill="#FFFFFF" d="M51.4,30.5v-1.3c0-1.4,0.2-4,2.2-4.1c1.7-0.2,2.4,1.3,2.4,2.8c0,2.1-0.5,3.3-1.8,4.8l-2.9,3
			c-3,3.3-5.9,7.3-5.9,11.9v0.9h17v-5.1h-9.8c0.3-1.6,2.7-3.9,3.7-4.9l2.5-2.4c2.4-2.5,3.6-4.5,3.6-8.1c0-5.2-3.1-7.7-8.2-7.7
			c-5.7,0-8.7,3.1-8.7,8.7v1.5H51.4z"/>
		<path id="XMLID_6_" fill="#FFFFFF" d="M37.3,48.4h6V20.9H39c-0.7,3.3-4.5,4.3-7.5,4.2v4.3h5.8V48.4z"/>
		<path id="XMLID_3_" fill="#FFFFFF" d="M62.1,52.5c-1.9-2.1-5.8-2.3-8.4-2.3h-7.5v28.1h6.2V67.4c2.6-0.1,5.4,0.2,7.8-0.9
			c3.1-1.4,3.9-4.8,3.9-7.8C64,56.4,63.7,54.3,62.1,52.5z M56.2,61.6c-1.1,0.8-2.6,0.7-3.9,0.7v-7h0.7c1.1,0,2,0,2.7,0.2
			c1.2,0.5,1.3,2.2,1.3,3.3C57.1,59.7,56.9,60.9,56.2,61.6z"/>
		<polygon id="XMLID_2_" fill="#FFFFFF" points="28.2,78.3 35.2,50.2 28.8,50.2 25,69.9 24.9,69.9 21,50.2 14.6,50.2 21.6,78.3 		
			"/>
	</g>
	<g>
		<path fill="#FFFFFF" d="M7.8,19.3l-1.1-5.9H3.1l-1.1,5.9H0.6L4,0.7h1.9l3.4,18.6H7.8z M6.5,12.1L5,3.5l-1.6,8.6H6.5z"/>
		<polygon fill="#FFFFFF" points="16.1,19.4 16.1,0.8 17.6,0.8 17.6,18.1 22.5,18.1 22.5,19.4 		"/>
		<polygon fill="#FFFFFF" points="29,19.4 29,0.8 36,0.8 36,2.1 30.6,2.1 30.6,8.8 35,8.8 35,10.1 30.6,10.1 30.6,18.1 36.1,18.1 
			36.1,19.4 		"/>
		<path fill="#FFFFFF" d="M44.8,19.4c-1.4,0-2.5-1.2-2.5-2.7v-3.9h1.6v3.9c0,0.7,0.4,1.4,1,1.4h2.6c0.6,0,1-0.7,1-1.4v-3.6
			c0-0.8-0.3-1.1-1.2-1.7c-1.1-0.8-2.2-1.6-3.1-2.2c-1.2-0.8-1.7-1.6-1.7-2.7V3.4c0-1.4,1.2-2.7,2.6-2.7h2.1c1.4,0,2.6,1.2,2.6,2.7
			v3.9h-1.6V3.4c0-0.7-0.4-1.4-1-1.4h-2.1c-0.6,0-1,0.7-1,1.4v2.8c0,1.1,0.3,1.3,1.1,1.8l0.1,0.1C45.6,8.3,46,8.6,46.5,9
			c0.7,0.5,1.5,1.1,2,1.4c1.5,1,1.5,2.1,1.5,2.8v3.6c0,1.4-1.1,2.6-2.6,2.7h0H44.8z"/>
		<path fill="#FFFFFF" d="M59.5,19.4c-1.4,0-2.5-1.2-2.5-2.7v-3.9h1.6v3.9c0,0.7,0.4,1.4,1,1.4h2.6c0.6,0,1-0.7,1-1.4v-3.6
			c0-0.8-0.3-1.1-1.2-1.7c-1-0.8-2.2-1.6-3.1-2.2c-1.2-0.8-1.7-1.6-1.7-2.7V3.4c0-1.4,1.2-2.7,2.6-2.7h2.1c1.4,0,2.6,1.2,2.6,2.7
			v3.9h-1.6V3.4c0-0.7-0.4-1.4-1-1.4h-2.1c-0.6,0-1,0.7-1,1.4v2.8c0,1.1,0.3,1.3,1.1,1.8L60,8.1c0.3,0.2,0.8,0.5,1.3,0.9
			c0.7,0.5,1.5,1.1,2,1.4c1.5,1,1.5,2.1,1.5,2.8v3.6c0,1.4-1.1,2.6-2.6,2.7h0H59.5z"/>
		<path fill="#FFFFFF" d="M74.5,19.4c-1.4,0-2.6-1.2-2.6-2.7V3.4c0-1.4,1.2-2.7,2.6-2.7h2.6c1.4,0,2.6,1.2,2.6,2.7v13.4
			c0,1.4-1.2,2.7-2.6,2.7H74.5z M74.5,2c-0.6,0-1,0.7-1,1.4v13.4c0,0.7,0.4,1.4,1,1.4h2.6c0.6,0,1-0.7,1-1.4V3.4
			c0-0.7-0.4-1.4-1-1.4H74.5z"/>
	</g>
	<g>
		<path fill="#FFFFFF" d="M0.3,20.6h3.3v1H1.5V23h2v1h-2v2.6H0.3V20.6z"/>
		<path fill="#FFFFFF" d="M6.1,20.5c1.8,0,2,1.3,2,3.1s-0.2,3.1-2,3.1c-1.8,0-2-1.3-2-3.1S4.3,20.5,6.1,20.5z M6.1,25.8
			c0.7,0,0.8-0.6,0.8-2.2c0-1.6-0.1-2.2-0.8-2.2c-0.7,0-0.8,0.6-0.8,2.2C5.3,25.2,5.4,25.8,6.1,25.8z"/>
		<path fill="#FFFFFF" d="M8.8,20.6h2.2c1,0,1.6,0.5,1.6,1.5c0,0.8-0.3,1.3-1,1.5v0c0.8,0.1,0.9,0.6,1,1.8c0,0.6,0,0.9,0.3,1.1v0.1
			h-1.3c-0.1-0.2-0.1-0.4-0.1-0.6l0-1.1c0-0.5-0.2-0.7-0.7-0.7H10v2.5H8.8V20.6z M10,23.2h0.5c0.6,0,0.9-0.2,0.9-0.9
			c0-0.5-0.3-0.8-0.8-0.8H10V23.2z"/>
	</g>
</g>
</svg>
