<?xml version="1.0" encoding="utf-8"?>
<!-- Generator: Adobe Illustrator 18.1.1, SVG Export Plug-In . SVG Version: 6.00 Build 0)  -->
<!DOCTYPE svg PUBLIC "-//W3C//DTD SVG 1.1//EN" "http://www.w3.org/Graphics/SVG/1.1/DTD/svg11.dtd">
<svg version="1.1" id="Capa_1" xmlns="http://www.w3.org/2000/svg" xmlns:xlink="http://www.w3.org/1999/xlink" x="0px" y="0px"
	 viewBox="0 0 43 43" enable-background="new 0 0 43 43" xml:space="preserve">
<g>
	<path fill="#FFFFFF" d="M21.5,42.9c-11.8,0-21.4-9.6-21.4-21.4S9.7,0.1,21.5,0.1s21.4,9.6,21.4,21.4S33.3,42.9,21.5,42.9z
		 M21.5,0.9c-11.4,0-20.6,9.3-20.6,20.6c0,11.4,9.3,20.6,20.6,20.6c11.4,0,20.6-9.3,20.6-20.6C42.1,10.1,32.9,0.9,21.5,0.9z"/>
	<g>
		<polygon fill="#FFFFFF" points="22.3,27.7 15.9,21.4 22.2,15.2 22.7,15.7 17,21.4 22.8,27.2 		"/>
	</g>
</g>
</svg>
