<?xml version="1.0" encoding="utf-8"?>
<!-- Generator: Adobe Illustrator 18.1.1, SVG Export Plug-In . SVG Version: 6.00 Build 0)  -->
<!DOCTYPE svg PUBLIC "-//W3C//DTD SVG 1.1//EN" "http://www.w3.org/Graphics/SVG/1.1/DTD/svg11.dtd">
<svg version="1.1" id="Capa_1" xmlns="http://www.w3.org/2000/svg" xmlns:xlink="http://www.w3.org/1999/xlink" x="0px" y="0px"
	 viewBox="0 0 42.8 42.8" enable-background="new 0 0 42.8 42.8" xml:space="preserve">
<g>
	<path fill="#FFFFFF" d="M21.4,42.8C9.6,42.8,0,33.2,0,21.4S9.6,0,21.4,0s21.4,9.6,21.4,21.4S33.2,42.8,21.4,42.8z M21.4,0.8
		C10,0.8,0.8,10,0.8,21.4C0.8,32.7,10,42,21.4,42C32.7,42,42,32.7,42,21.4C42,10,32.7,0.8,21.4,0.8z"/>
	<g>
		<polygon fill="#FFFFFF" points="20.7,27.6 20.1,27 25.8,21.4 20,15.6 20.6,15 26.9,21.4 		"/>
	</g>
</g>
</svg>
