<?xml version="1.0" encoding="utf-8"?>
<!-- Generator: Adobe Illustrator 18.1.1, SVG Export Plug-In . SVG Version: 6.00 Build 0)  -->
<!DOCTYPE svg PUBLIC "-//W3C//DTD SVG 1.1//EN" "http://www.w3.org/Graphics/SVG/1.1/DTD/svg11.dtd">
<svg version="1.1" id="Capa_1" xmlns="http://www.w3.org/2000/svg" xmlns:xlink="http://www.w3.org/1999/xlink" x="0px" y="0px"
	 viewBox="0 0 1440 1440" enable-background="new 0 0 1440 1440" xml:space="preserve">
<path opacity="0.5" fill="#FFFFFF" enable-background="new    " d="M720,1434C326.3,1434,6,1113.7,6,720S326.3,6,720,6
	s714,320.3,714,714S1113.7,1434,720,1434z M720,30.2C339.6,30.2,30.2,339.6,30.2,720s309.5,689.8,689.8,689.8
	s689.8-309.5,689.8-689.8S1100.4,30.2,720,30.2L720,30.2z"/>
<polygon fill="#FFFFFF" points="883.4,848.1 754.2,719.1 754.4,718.8 754.2,718.6 880.9,591.9 846.6,557.7 720,684.4 593.4,557.7 
	559.1,591.9 685.8,718.6 685.6,718.8 685.8,719.1 556.6,848.1 590.9,882.3 720,753.3 849.1,882.3 "/>
</svg>
