<?xml version="1.0" encoding="utf-8"?>
<!-- Generator: Adobe Illustrator 18.1.1, SVG Export Plug-In . SVG Version: 6.00 Build 0)  -->
<!DOCTYPE svg PUBLIC "-//W3C//DTD SVG 1.1//EN" "http://www.w3.org/Graphics/SVG/1.1/DTD/svg11.dtd">
<svg version="1.1" id="Capa_1" xmlns="http://www.w3.org/2000/svg" xmlns:xlink="http://www.w3.org/1999/xlink" x="0px" y="0px"
	 viewBox="0 0 1440 1440" enable-background="new 0 0 1440 1440" xml:space="preserve">
<path opacity="0.5" fill="#FFFFFF" enable-background="new    " d="M720,1440C323,1440,0,1117,0,720S323,0,720,0s720,323,720,720
	S1117,1440,720,1440z M720,24.4c-383.5,0-695.6,312-695.6,695.6s312,695.6,695.6,695.6s695.6-312,695.6-695.6S1103.5,24.4,720,24.4
	L720,24.4z"/>
<path fill="#FFFFFF" d="M776.6,686.7L611.7,521.8l162.4-162.5l34.5,34.5l-127.9,128l130.4,130.4"/>
<g>
	<path fill="#FFFFFF" d="M296.9,855.1l29.6,154.6h0.9l31-154.6H402l-48,209h-54.2l-48-209H296.9z M433.6,959.6
		c0-15.8,0.7-30.4,2.2-43.8c1.5-13.4,4.7-24.8,9.7-34.4c5-9.5,12.2-17,21.5-22.4c9.4-5.4,22-8,37.8-8.1c15.8,0,28.4,2.7,37.8,8.1
		c9.4,5.4,16.5,12.8,21.5,22.4c5,9.6,8.2,21,9.7,34.4c1.5,13.3,2.2,27.9,2.2,43.8c0,16-0.7,30.6-2.2,43.9
		c-1.5,13.3-4.7,24.7-9.7,34.2c-5,9.6-12.2,16.9-21.5,22c-9.4,5.1-22,7.6-37.8,7.6s-28.4-2.5-37.8-7.6c-9.3-5.1-16.5-12.4-21.5-22
		c-5-9.5-8.2-21-9.7-34.2C434.4,990.2,433.6,975.6,433.6,959.6L433.6,959.6z M475.8,959.6c0,14,0.3,26,1,35.8c0.7,9.9,2,17.9,4.1,24
		c2,6.1,5,10.7,8.8,13.5c3.8,2.8,8.8,4.2,15.1,4.2s11.3-1.4,15.1-4.2c3.8-2.8,6.7-7.3,8.8-13.5c2-6.1,3.4-14.1,4.1-24
		c0.7-9.9,1-21.8,1-35.8c0-14.1-0.3-26-1-35.7c-0.7-9.8-2-17.8-4.1-24c-2-6.2-5-10.8-8.8-13.6s-8.8-4.2-15.1-4.2s-11.3,1.4-15.1,4.2
		c-3.8,2.8-6.7,7.4-8.8,13.6c-2,6.2-3.4,14.3-4.1,24S475.8,945.5,475.8,959.6L475.8,959.6z M621.4,1064.1v-209h42.2v174.5h74.7v34.5
		H621.4z M787.1,855.1l29.6,154.6h0.9l31-154.6h43.6l-48,209H790l-48-209H787.1z M1045.1,855.1v34.5h-74.6v49.2h70.2v34.5h-70.2
		v56.2h77.6v34.5H928.3V855L1045.1,855.1L1045.1,855.1z M1089.7,855.1h77.9c17.6,0,31.2,4.5,41,13.3c9.8,8.9,14.6,22.4,14.6,40.5
		c0,14-2.8,25.5-8.5,34.4c-5.6,8.9-14.4,14.6-26.3,17.1v0.6c10.5,1.5,18.2,5,23.1,10.2c4.9,5.3,7.9,13.8,9.1,25.5
		c0.4,3.9,0.7,8.1,0.9,12.7c0.2,4.6,0.4,9.7,0.6,15.3c0.4,11.1,1,19.6,1.8,25.5c1.2,5.8,3.7,9.8,7.6,12v1.8h-45.7
		c-2.1-2.9-3.5-6.3-4.1-10.1c-0.6-3.8-1-7.7-1.2-11.8l-1.2-40.1c-0.4-8.2-2.4-14.6-6.1-19.3s-9.9-7-18.7-7H1132v88.4h-42.2v-209
		H1089.7z M1131.9,946.4h17.5c10.2,0,18-2.4,23.4-7.2c5.5-4.8,8.2-12.8,8.2-24.1c0-19.3-9.8-29-29.3-29h-19.9v60.3H1131.9z"/>
</g>
</svg>
