<?xml version="1.0" encoding="utf-8"?>
<!-- Generator: Adobe Illustrator 18.1.1, SVG Export Plug-In . SVG Version: 6.00 Build 0)  -->
<!DOCTYPE svg PUBLIC "-//W3C//DTD SVG 1.1//EN" "http://www.w3.org/Graphics/SVG/1.1/DTD/svg11.dtd">
<svg version="1.1" id="Capa_1" xmlns="http://www.w3.org/2000/svg" xmlns:xlink="http://www.w3.org/1999/xlink" x="0px" y="0px"
	 viewBox="0 0 1440 1440" enable-background="new 0 0 1440 1440" xml:space="preserve">
<path opacity="0.5" fill="#FFFFFF" enable-background="new    " d="M720,1434C326.3,1434,6,1113.7,6,720S326.3,6,720,6
	s714,320.3,714,714S1113.7,1434,720,1434z M720,30.2C339.6,30.2,30.2,339.6,30.2,720s309.5,689.8,689.8,689.8
	s689.8-309.5,689.8-689.8S1100.4,30.2,720,30.2L720,30.2z"/>
<path fill="#FFFFFF" d="M776.1,687L612.6,523.5l161-161.2l34.3,34.3L681,523.5l129.4,129.3"/>
<g>
	<path fill="#FFFFFF" d="M410.8,853.9h70c8.5,0,16.4,0.9,23.7,2.6c7.3,1.7,13.5,4.6,18.7,8.7s9.3,9.5,12.2,16.3s4.4,15.1,4.4,25
		c0,11.2-2.6,20.9-7.8,28.9s-13.1,13.5-23.5,16.4v0.6c11.6,1.5,20.8,6.5,27.6,14.8s10.2,19.5,10.2,33.4c0,8.1-1.1,15.9-3.2,23.2
		c-2.1,7.4-5.8,13.8-10.9,19.3c-5.1,5.5-11.8,9.9-20,13.2c-8.2,3.3-18.4,4.9-30.6,4.9H411V853.9H410.8z M452.6,939h11.9
		c11.6,0,20.1-2.1,25.4-6.2c5.3-4.2,8-11.2,8-21.1c0-9.9-2.4-16.8-7.3-20.9c-4.8-4.1-12.5-6.1-22.9-6.1h-15.1V939z M452.6,1030.5
		h16.3c10.1,0,18.2-2.2,24.4-6.7c6.2-4.5,9.3-12.7,9.3-24.7c0-6-0.8-11-2.5-15c-1.6-4-3.9-7.2-6.7-9.6c-2.8-2.4-6.1-4.1-10-5.1
		s-8.1-1.5-12.8-1.5h-18L452.6,1030.5L452.6,1030.5z M739.6,1061.2H696l-9.6-43.9h-55.2l-9.6,43.9H578l55-207.3h51.7L739.6,1061.2
		L739.6,1061.2z M659.1,889.9h-0.6l-20,93.2h40.7L659.1,889.9L659.1,889.9z M863,923.9c0-15.1-1.8-26.1-5.4-33
		c-3.6-6.9-10.1-10.3-19.6-10.3c-5.2,0-9.5,1.4-12.9,4.2s-6.1,7.4-8,13.7s-3.3,14.5-4.1,24.7s-1.2,22.6-1.2,37.3
		c0,15.7,0.5,28.4,1.6,38c1.1,9.7,2.7,17.2,4.9,22.5s5,8.9,8.4,10.7s7.3,2.8,11.8,2.8c3.7,0,7.1-0.6,10.3-1.9s6-3.8,8.3-7.6
		c2.3-3.8,4.2-9.1,5.5-16c1.4-6.9,2-15.9,2-27.2h41.8c0,11.2-0.9,21.9-2.6,32c-1.7,10.1-5,18.9-9.7,26.4c-4.7,7.6-11.4,13.5-20,17.7
		c-8.6,4.3-19.8,6.4-33.5,6.4c-15.7,0-28.2-2.5-37.5-7.6s-16.4-12.3-21.3-21.8c-4.9-9.5-8.1-20.8-9.6-34s-2.2-27.7-2.2-43.6
		c0-15.7,0.7-30.2,2.2-43.4c1.5-13.3,4.6-24.6,9.6-34.1c4.9-9.5,12.1-16.9,21.3-22.2c9.3-5.3,21.8-8,37.5-8
		c14.9,0,26.7,2.4,35.3,7.3c8.6,4.8,15.1,11,19.3,18.4c4.3,7.5,6.9,15.5,8,24.1s1.6,16.7,1.6,24.3H863V923.9z M992.5,853.9V937h0.6
		l52.9-83.1h45.3l-56.3,88.9l62.7,118.5h-47.1l-42.7-85.1l-15.4,23.5v61.6h-41.8V853.9H992.5L992.5,853.9z"/>
</g>
</svg>
