<?xml version="1.0" encoding="utf-8"?>
<!-- Generator: Adobe Illustrator 18.1.1, SVG Export Plug-In . SVG Version: 6.00 Build 0)  -->
<!DOCTYPE svg PUBLIC "-//W3C//DTD SVG 1.1//EN" "http://www.w3.org/Graphics/SVG/1.1/DTD/svg11.dtd">
<svg version="1.1" id="Capa_1" xmlns="http://www.w3.org/2000/svg" xmlns:xlink="http://www.w3.org/1999/xlink" x="0px" y="0px"
	 viewBox="0 0 1440 1440" enable-background="new 0 0 1440 1440" xml:space="preserve">
<path fill="#FFFFFF" d="M719.4,1439.8c-397,0-720-323-720-720s323-720,720-720s720,323,720,720S1116.4,1439.8,719.4,1439.8z
	 M719.4,48.9c-369.9,0-670.8,300.9-670.8,670.8s301,670.8,670.8,670.8s670.8-300.9,670.8-670.8S1089.3,48.9,719.4,48.9z"/>
<g>
	<polygon fill="#FFFFFF" points="846.2,877.3 557.9,589.1 592.6,554.3 880.9,842.6 	"/>
	
		<rect x="694.8" y="512" transform="matrix(0.7071 0.7071 -0.7071 0.7071 716.8898 -299.0197)" fill="#FFFFFF" width="49.1" height="407.7"/>
</g>
</svg>
