<?xml version="1.0" encoding="utf-8"?>
<!-- Generator: Adobe Illustrator 18.1.1, SVG Export Plug-In . SVG Version: 6.00 Build 0)  -->
<!DOCTYPE svg PUBLIC "-//W3C//DTD SVG 1.1//EN" "http://www.w3.org/Graphics/SVG/1.1/DTD/svg11.dtd">
<svg version="1.1" id="Capa_1" xmlns="http://www.w3.org/2000/svg" xmlns:xlink="http://www.w3.org/1999/xlink" x="0px" y="0px"
	 viewBox="0 0 34 34" enable-background="new 0 0 34 34" xml:space="preserve">
<path fill="#FFFFFF" d="M17,34C7.6,34,0,26.4,0,17S7.6,0,17,0c9.4,0,17,7.6,17,17S26.4,34,17,34z M17,2C8.7,2,2,8.7,2,17
	c0,8.3,6.7,15,15,15s15-6.7,15-15C32,8.7,25.3,2,17,2z"/>
<path fill-rule="evenodd" clip-rule="evenodd" fill="#FFFFFF" d="M17.6,21c-0.2,0.2-0.5,0.4-0.8,0.4c-0.3,0-0.6-0.1-0.8-0.4l-4-4
	c-0.2-0.2-0.4-0.6-0.3-0.9c0-0.3,0.1-0.6,0.3-0.8c0.2-0.2,0.5-0.3,0.8-0.3c0.3,0,0.6,0.1,0.9,0.3l3.2,3.2l5.6-5.6
	c0.2-0.2,0.6-0.4,0.9-0.3c0.3,0,0.6,0.1,0.8,0.3c0.2,0.2,0.3,0.5,0.3,0.8c0,0.3-0.1,0.6-0.3,0.9L17.6,21z"/>
</svg>
