<?xml version="1.0" encoding="utf-8"?>
<!-- Generator: Adobe Illustrator 18.1.1, SVG Export Plug-In . SVG Version: 6.00 Build 0)  -->
<!DOCTYPE svg PUBLIC "-//W3C//DTD SVG 1.1//EN" "http://www.w3.org/Graphics/SVG/1.1/DTD/svg11.dtd">
<svg version="1.1" id="Capa_1" xmlns="http://www.w3.org/2000/svg" xmlns:xlink="http://www.w3.org/1999/xlink" x="0px" y="0px"
	 viewBox="0 0 141.3 33.3" enable-background="new 0 0 141.3 33.3" xml:space="preserve">
<g>
	<rect x="15.4" y="0.2" opacity="0.5" fill="#FFFFFF" width="1.3" height="26.4"/>
	<rect x="18" y="0.2" opacity="0.5" fill="#FFFFFF" width="1.3" height="26.4"/>
	<rect x="22" y="0.2" opacity="0.5" fill="#FFFFFF" width="1.3" height="20.8"/>
	<rect x="26" y="0.2" opacity="0.5" fill="#FFFFFF" width="2.7" height="20.8"/>
	<rect x="29.9" y="0.2" opacity="0.5" fill="#FFFFFF" width="5.3" height="20.8"/>
	<rect x="36.6" y="0.2" opacity="0.5" fill="#FFFFFF" width="1.3" height="20.8"/>
	<rect x="40.5" y="0.2" opacity="0.5" fill="#FFFFFF" width="4" height="20.8"/>
	<rect x="45.8" y="0.2" opacity="0.5" fill="#FFFFFF" width="1.3" height="20.8"/>
	<rect x="48.5" y="0.2" opacity="0.5" fill="#FFFFFF" width="2.7" height="20.8"/>
	<rect x="55.1" y="0.2" opacity="0.5" fill="#FFFFFF" width="1.3" height="20.8"/>
	<rect x="61.8" y="0.2" opacity="0.5" fill="#FFFFFF" width="1.3" height="20.8"/>
	<rect x="64.4" y="0.2" opacity="0.5" fill="#FFFFFF" width="1.3" height="20.8"/>
	<rect x="68.4" y="0.2" opacity="0.5" fill="#FFFFFF" width="1.3" height="20.8"/>
	<rect x="73.7" y="0.2" opacity="0.5" fill="#FFFFFF" width="1.3" height="20.8"/>
	<rect x="76.3" y="0.2" opacity="0.5" fill="#FFFFFF" width="1.3" height="26.4"/>
	<rect x="79" y="0.2" opacity="0.5" fill="#FFFFFF" width="1.3" height="26.4"/>
	<rect x="81.6" y="0.2" opacity="0.5" fill="#FFFFFF" width="1.3" height="20.8"/>
	<rect x="85.6" y="0.2" opacity="0.5" fill="#FFFFFF" width="1.3" height="20.8"/>
	<rect x="90.9" y="0.2" opacity="0.5" fill="#FFFFFF" width="4" height="20.8"/>
	<rect x="96.2" y="0.2" opacity="0.5" fill="#FFFFFF" width="1.3" height="20.8"/>
	<rect x="100.2" y="0.2" opacity="0.5" fill="#FFFFFF" width="4" height="20.8"/>
	<rect x="106.8" y="0.2" opacity="0.5" fill="#FFFFFF" width="1.3" height="20.8"/>
	<rect x="109.5" y="0.2" opacity="0.5" fill="#FFFFFF" width="2.7" height="20.8"/>
	<rect x="114.8" y="0.2" opacity="0.5" fill="#FFFFFF" width="2.7" height="20.8"/>
	<rect x="118.7" y="0.2" opacity="0.5" fill="#FFFFFF" width="2.7" height="20.8"/>
	<rect x="122.7" y="0.2" opacity="0.5" fill="#FFFFFF" width="2.7" height="20.8"/>
	<rect x="128" y="0.2" opacity="0.5" fill="#FFFFFF" width="1.3" height="20.8"/>
	<rect x="132" y="0.2" opacity="0.5" fill="#FFFFFF" width="1.3" height="20.8"/>
	<rect x="137.3" y="0.2" opacity="0.5" fill="#FFFFFF" width="1.3" height="26.4"/>
	<rect x="140" y="0.2" opacity="0.5" fill="#FFFFFF" width="1.3" height="26.4"/>
	<g>
		<g>
			<path fill="#FFFFFF" d="M0,29.6h1l0.2-1.5H0.4v-1.3h1l0.3-2.1h1.2l-0.3,2.1h1.2L4,24.7h1.2l-0.3,2.1h0.9v1.3h-1l-0.2,1.5h0.9v1.3
				h-1L4.1,33H3l0.3-2.1H2L1.8,33H0.6l0.3-2.1H0V29.6z M2.2,29.6h1.2l0.2-1.5H2.4L2.2,29.6z"/>
		</g>
	</g>
	<g>
		<g>
			<path fill="#FFFFFF" d="M24.4,29.6h1l0.2-1.5h-0.9v-1.3h1l0.3-2.1h1.2L27,26.8h1.2l0.3-2.1h1.2l-0.3,2.1h0.9v1.3h-1l-0.2,1.5h0.9
				v1.3h-1L28.5,33h-1.2l0.3-2.1h-1.2L26.2,33H25l0.3-2.1h-0.9V29.6z M26.6,29.6h1.2l0.2-1.5h-1.2L26.6,29.6z"/>
			<path fill="#FFFFFF" d="M32,29.6h1l0.2-1.5h-0.9v-1.3h1l0.3-2.1h1.2l-0.3,2.1h1.2l0.3-2.1h1.2l-0.3,2.1h0.9v1.3h-1l-0.2,1.5h0.9
				v1.3h-1L36.1,33h-1.2l0.3-2.1H34L33.8,33h-1.2l0.3-2.1H32V29.6z M34.2,29.6h1.2l0.2-1.5h-1.2L34.2,29.6z"/>
			<path fill="#FFFFFF" d="M39.5,29.6h1l0.2-1.5h-0.9v-1.3h1l0.3-2.1h1.2l-0.3,2.1h1.2l0.3-2.1h1.2l-0.3,2.1h0.9v1.3h-1l-0.2,1.5
				h0.9v1.3h-1L43.6,33h-1.2l0.3-2.1h-1.2L41.3,33h-1.2l0.3-2.1h-0.9V29.6z M41.7,29.6h1.2l0.2-1.5h-1.2L41.7,29.6z"/>
			<path fill="#FFFFFF" d="M47.1,29.6h1l0.2-1.5h-0.9v-1.3h1l0.3-2.1h1.2l-0.3,2.1h1.2l0.3-2.1h1.2L52,26.8h0.9v1.3h-1l-0.2,1.5h0.9
				v1.3h-1L51.2,33H50l0.3-2.1h-1.2L48.9,33h-1.2l0.3-2.1h-0.9V29.6z M49.3,29.6h1.2l0.2-1.5h-1.2L49.3,29.6z"/>
			<path fill="#FFFFFF" d="M54.6,29.6h1l0.2-1.5H55v-1.3h1l0.3-2.1h1.2l-0.3,2.1h1.2l0.3-2.1h1.2l-0.3,2.1h0.9v1.3h-1l-0.2,1.5h0.9
				v1.3h-1L58.8,33h-1.2l0.3-2.1h-1.2L56.4,33h-1.2l0.3-2.1h-0.9V29.6z M56.9,29.6H58l0.2-1.5H57L56.9,29.6z"/>
			<path fill="#FFFFFF" d="M62.2,29.6h1l0.2-1.5h-0.9v-1.3h1l0.3-2.1H65l-0.3,2.1h1.2l0.3-2.1h1.2l-0.3,2.1H68v1.3h-1l-0.2,1.5h0.9
				v1.3h-1L66.3,33h-1.2l0.3-2.1h-1.2L64,33h-1.2l0.3-2.1h-0.9V29.6z M64.4,29.6h1.2l0.2-1.5h-1.2L64.4,29.6z"/>
		</g>
	</g>
	<g>
		<g>
			<path fill="#FFFFFF" d="M85.4,29.6h1l0.2-1.5h-0.9v-1.3h1l0.3-2.1h1.2l-0.3,2.1h1.2l0.3-2.1h1.2l-0.3,2.1h0.9v1.3h-1l-0.2,1.5
				h0.9v1.3h-1L89.5,33h-1.2l0.3-2.1h-1.2L87.2,33H86l0.3-2.1h-0.9V29.6z M87.6,29.6h1.2l0.2-1.5h-1.2L87.6,29.6z"/>
			<path fill="#FFFFFF" d="M92.9,29.6h1l0.2-1.5h-0.9v-1.3h1l0.3-2.1h1.2l-0.3,2.1h1.2l0.3-2.1h1.2l-0.3,2.1h0.9v1.3h-1l-0.2,1.5
				h0.9v1.3h-1L97,33h-1.2l0.3-2.1H95L94.7,33h-1.2l0.3-2.1h-0.9V29.6z M95.1,29.6h1.2l0.2-1.5h-1.2L95.1,29.6z"/>
			<path fill="#FFFFFF" d="M100.5,29.6h1l0.2-1.5h-0.9v-1.3h1l0.3-2.1h1.2l-0.3,2.1h1.2l0.3-2.1h1.2l-0.3,2.1h0.9v1.3h-1l-0.2,1.5
				h0.9v1.3h-1l-0.3,2.1h-1.2l0.3-2.1h-1.2l-0.3,2.1h-1.2l0.3-2.1h-0.9V29.6z M102.7,29.6h1.2l0.2-1.5h-1.2L102.7,29.6z"/>
			<path fill="#FFFFFF" d="M108,29.6h1l0.2-1.5h-0.9v-1.3h1l0.3-2.1h1.2l-0.3,2.1h1.2l0.3-2.1h1.2l-0.3,2.1h0.9v1.3h-1l-0.2,1.5h0.9
				v1.3h-1l-0.3,2.1H111l0.3-2.1h-1.2l-0.3,2.1h-1.2l0.3-2.1H108V29.6z M110.3,29.6h1.2l0.2-1.5h-1.2L110.3,29.6z"/>
			<path fill="#FFFFFF" d="M115.6,29.6h1l0.2-1.5H116v-1.3h1l0.3-2.1h1.2l-0.3,2.1h1.2l0.3-2.1h1.2l-0.3,2.1h0.9v1.3h-1l-0.2,1.5
				h0.9v1.3h-1l-0.3,2.1h-1.2l0.3-2.1h-1.2l-0.3,2.1h-1.2l0.3-2.1h-0.9V29.6z M117.8,29.6h1.2l0.2-1.5H118L117.8,29.6z"/>
			<path fill="#FFFFFF" d="M123.2,29.6h1l0.2-1.5h-0.9v-1.3h1l0.3-2.1h1.2l-0.3,2.1h1.2l0.3-2.1h1.2l-0.3,2.1h0.9v1.3h-1l-0.2,1.5
				h0.9v1.3h-1l-0.3,2.1h-1.2l0.3-2.1h-1.2L125,33h-1.2l0.3-2.1h-0.9V29.6z M125.4,29.6h1.2l0.2-1.5h-1.2L125.4,29.6z"/>
		</g>
	</g>
</g>
</svg>
