<?xml version="1.0" encoding="utf-8"?>
<!-- Generator: Adobe Illustrator 18.1.1, SVG Export Plug-In . SVG Version: 6.00 Build 0)  -->
<!DOCTYPE svg PUBLIC "-//W3C//DTD SVG 1.1//EN" "http://www.w3.org/Graphics/SVG/1.1/DTD/svg11.dtd">
<svg version="1.1" id="Capa_1" xmlns="http://www.w3.org/2000/svg" xmlns:xlink="http://www.w3.org/1999/xlink" x="0px" y="0px"
	 viewBox="0 0 1440 1440" enable-background="new 0 0 1440 1440" xml:space="preserve">
<path opacity="0.5" fill="#FFFFFF" enable-background="new    " d="M720,0C322.3,0,0,322.3,0,720s322.3,720,720,720
	s720-322.3,720-720S1117.7,0,720,0z M922.3,737.1c-44.6,0-82.3,0-150.9,0c0,137.1,0,291.4,0,445.7c0,6.9-171.4,6.9-171.4,3.4
	c0-154.3,0-308.6,0-462.9c-34.3-3.4-68.6-3.4-102.9-6.9c0-54.9,0-120,0-154.3c34.3,0,68.6,0,99.4,0c0,0,0-20.6,0-30.9
	c0-44.6,0-89.1,3.4-130.3c3.4-75.4,48-123.4,120-144c30.9-6.9,61.7-10.3,92.6-10.3c34.3,0,54.9,0,92.6,0c6.9,0,3.4,0,3.4,0
	c0,58.3,0,113.1,0,171.4c0,0,6.9,0,3.4,0c-30.9,0-58.3,0-89.1,0c-27.4,0-30.9,10.3-34.3,37.7c0,34.3,3.4,68.6,3.4,102.9
	c48,0,96,0,144,0C932.6,600,925.7,668.6,922.3,737.1z"/>
</svg>
