<?xml version="1.0" encoding="utf-8"?>
<!-- Generator: Adobe Illustrator 18.1.1, SVG Export Plug-In . SVG Version: 6.00 Build 0)  -->
<!DOCTYPE svg PUBLIC "-//W3C//DTD SVG 1.1//EN" "http://www.w3.org/Graphics/SVG/1.1/DTD/svg11.dtd">
<svg version="1.1" id="Capa_1" xmlns="http://www.w3.org/2000/svg" xmlns:xlink="http://www.w3.org/1999/xlink" x="0px" y="0px"
	 viewBox="0 0 42 42" enable-background="new 0 0 42 42" xml:space="preserve">
<path id="nzEStQ.tif_2_" fill-rule="evenodd" clip-rule="evenodd" fill="#FFFFFF" d="M25,41.6c0.6-0.9,1.3-1.7,1.7-2.6
	c1.5-2.8,1.1-6.1-1.2-8.4c-1.2-1.2-2.5-2.2-3.8-3.3c-1.6-1.4-1.7-2.7-0.2-4.2c0.5-0.5,1.1-0.9,1.6-1.4c3.6-3.2,3.8-8.1,0.5-11.6
	c-0.3-0.3-0.5-0.5-1-1c2.3,0.4,4.1-0.4,5.9-1.8c-0.4,0-0.6-0.1-0.9-0.1c-3.3,0-6.6,0-9.9,0c-2.8,0.1-5.4,0.7-7.7,2.4
	c-3.9,2.9-4.7,8.5-1.7,12c1.6,1.8,3.6,2.6,6,2.8c0.5,0,1.1,0,1.7,0c-0.7,1.9-0.2,3.4,0.9,4.8c-2.2,0.4-4.4,0.8-6.5,1.3
	c-2.2,0.6-4.1,1.8-5.4,3.7c-4.8-5.1-6.6-14.2-3.2-21.9C5.5,4.1,13.9-0.8,23.3,0.1C30.6,0.8,38.8,7,40.2,12.8c-1.3,0-2.5,0-3.8,0
	c0-1.8,0-3.5,0-5.5c-0.8,0-1.4-0.1-2.1,0c-0.2,0-0.4,0.5-0.4,0.7c0,1.3,0,2.5,0,3.8c0,0.3,0,0.6,0,1c-1.5,0-3,0-4.5,0
	c-0.7,0-1,0.2-0.9,0.9c0,0.1,0,0.3,0,0.5c-0.1,0.8,0.2,1.2,1.1,1.1c1.4-0.1,2.9,0,4.5,0c0,1.4,0,2.7,0,4.1c0,1.6-0.2,1.4,1.5,1.5
	c0.3,0,0.5,0,1,0c0-1.8,0-3.6,0-5.5c1.6,0,3.1,0,4.5,0c0.2,0,0.5,0.5,0.6,0.8c1.6,7.3-0.1,13.7-5.1,19.2c-3,3.2-6.7,5.2-10.9,6.2
	C25.3,41.6,25.1,41.6,25,41.6z M21.4,41.8c2.7-1.3,3.5-4.8,1.6-7.1c-0.6-0.7-1.3-1.2-1.9-1.8c-1.4-1.4-3.1-2.1-5.2-1.7
	c-1.7,0.3-3.5,0.5-5.1,1.5c-1.5,0.9-2.4,2.2-2.5,4c0,0.6,0,1.3,0.6,1.7c3.3,2.2,6.9,3.5,11.1,3.7C20.4,42,21,42,21.4,41.8z M14,21.9
	c2.6,2.2,6.6,1,7.3-2.3c0.2-0.8,0.2-1.7,0.1-2.6c-0.3-2.5-1.1-4.8-3-6.6c-1-0.9-2.1-1.4-3.5-1.2c-2.7,0.4-4,2.2-3.9,5.2
	C10.9,17.4,12.1,20.4,14,21.9z"/>
</svg>
