<?xml version="1.0" encoding="utf-8"?>
<!-- Generator: Adobe Illustrator 18.1.1, SVG Export Plug-In . SVG Version: 6.00 Build 0)  -->
<!DOCTYPE svg PUBLIC "-//W3C//DTD SVG 1.1//EN" "http://www.w3.org/Graphics/SVG/1.1/DTD/svg11.dtd">
<svg version="1.1" id="Capa_1" xmlns="http://www.w3.org/2000/svg" xmlns:xlink="http://www.w3.org/1999/xlink" x="0px" y="0px"
	 viewBox="0 0 38.1 31.9" enable-background="new 0 0 38.1 31.9" xml:space="preserve">
<g>
	<path fill="#FFFFFF" d="M38.1,18.5C37.8,8.2,29.3,0,19,0C8.7,0,0.3,8.2,0,18.5h0v9.8c0,2,1.6,3.7,3.7,3.7c2,0,3.7-1.6,3.7-3.7v-6.2
		c0-2-1.6-3.7-3.7-3.7H1.2C1.5,8.9,9.4,1.2,19,1.2c9.7,0,17.6,7.7,17.9,17.3h-2.5c-2,0-3.7,1.6-3.7,3.7v6.2c0,2,1.6,3.7,3.7,3.7
		c2,0,3.7-1.6,3.7-3.7L38.1,18.5L38.1,18.5z M6.2,22.1v6.2c0,1.4-1.1,2.5-2.5,2.5c-1.4,0-2.5-1.1-2.5-2.5v-8.7h2.5
		C5,19.6,6.2,20.7,6.2,22.1z M36.9,28.3c0,1.4-1.1,2.5-2.5,2.5c-1.4,0-2.5-1.1-2.5-2.5v-6.2c0-1.4,1.1-2.5,2.5-2.5h2.5V28.3z"/>
</g>
</svg>
