<?xml version="1.0" encoding="utf-8"?>
<!-- Generator: Adobe Illustrator 18.1.1, SVG Export Plug-In . SVG Version: 6.00 Build 0)  -->
<!DOCTYPE svg PUBLIC "-//W3C//DTD SVG 1.1//EN" "http://www.w3.org/Graphics/SVG/1.1/DTD/svg11.dtd">
<svg version="1.1" id="Capa_1" xmlns="http://www.w3.org/2000/svg" xmlns:xlink="http://www.w3.org/1999/xlink" x="0px" y="0px"
	 viewBox="0 0 1440 1440" enable-background="new 0 0 1440 1440" xml:space="preserve">
<g>
	<path fill="#FFFFFF" d="M977.1,713.1c0,144-116.6,260.6-257.1,260.6s-257.1-120-257.1-264c0-20.6,3.4-37.7,6.9-72h-58.3V1008
		c0,17.1,0,41.1,17.1,41.1H1008c17.1,0,51.4-24,51.4-41.1V641.1h-92.6C973.7,675.4,977.1,692.6,977.1,713.1z"/>
	<circle fill="#FFFFFF" cx="720" cy="720" r="161.1"/>
	<path fill="#FFFFFF" d="M1011.4,401.1h-96c-17.1,0-20.6,13.7-20.6,30.9v96c0,17.1,3.4,44.6,20.6,44.6h96
		c17.1,0,51.4-27.4,51.4-44.6v-96C1062.9,414.9,1028.6,401.1,1011.4,401.1z"/>
	<path fill="#FFFFFF" d="M720,0C322.3,0,0,322.3,0,720s322.3,720,720,720s720-322.3,720-720S1117.7,0,720,0z M1131.4,1025.1
		c0,54.9-44.6,96-96,96H404.6c-51.4,0-96-44.6-96-96V394.3c0-51.4,44.6-96,96-96h630.9c54.9,0,96,44.6,96,96V1025.1z"/>
</g>
</svg>
