<?xml version="1.0" encoding="utf-8"?>
<!-- Generator: Adobe Illustrator 18.1.1, SVG Export Plug-In . SVG Version: 6.00 Build 0)  -->
<!DOCTYPE svg PUBLIC "-//W3C//DTD SVG 1.1//EN" "http://www.w3.org/Graphics/SVG/1.1/DTD/svg11.dtd">
<svg version="1.1" id="Capa_1" xmlns="http://www.w3.org/2000/svg" xmlns:xlink="http://www.w3.org/1999/xlink" x="0px" y="0px"
	 viewBox="0 0 1440 1440" enable-background="new 0 0 1440 1440" xml:space="preserve">
<g>
	<path fill="#FFFFFF" d="M716.7,0.9C321.4,0.9,1,321.3,1,716.6c0,293.1,177.2,545.3,429.5,654.4c-3.4-51.1,0-109.1,13.6-163.6
		c13.6-57.9,92-388.5,92-388.5s-23.9-47.7-23.9-115.9c0-105.7,61.3-184.1,139.7-184.1c64.7,0,95.4,47.7,95.4,109.1
		c0,64.7-40.8,163.6-64.7,255.6c-17.1,75,37.5,136.3,112.5,136.3c136.3,0,228.3-173.8,228.3-381.7c0-156.8-105.7-272.7-296.5-272.7
		c-218.1,0-351.1,163.6-351.1,344.2c0,61.3,17.1,105.7,47.7,139.7c13.6,17.1,13.6,20.5,10.2,40.8c-3.4,13.6-10.2,44.3-13.6,57.9
		c-3.4,17.1-20.5,23.9-37.5,17.1c-98.9-40.8-146.5-149.9-146.5-272.7c0-204.4,170.4-446.4,511.2-446.4
		c272.7,0,453.2,197.7,453.2,409c0,279.5-156.8,490.8-385.1,490.8c-78.4,0-149.9-40.8-173.8-88.6c0,0-40.8,163.6-51.1,197.7
		c-13.6,54.5-44.3,109.1-71.6,153.4c64.7,20.5,132.9,30.7,204.4,30.7c395.3,0,715.7-320.4,715.7-715.7
		C1432.4,321.3,1112,0.9,716.7,0.9z"/>
</g>
</svg>
