<?xml version="1.0" encoding="utf-8"?>
<!-- Generator: Adobe Illustrator 18.1.1, SVG Export Plug-In . SVG Version: 6.00 Build 0)  -->
<!DOCTYPE svg PUBLIC "-//W3C//DTD SVG 1.1//EN" "http://www.w3.org/Graphics/SVG/1.1/DTD/svg11.dtd">
<svg version="1.1" id="Capa_1" xmlns="http://www.w3.org/2000/svg" xmlns:xlink="http://www.w3.org/1999/xlink" x="0px" y="0px"
	 viewBox="0 0 33 33" enable-background="new 0 0 33 33" xml:space="preserve">
<g>
	<g>
		<g>
			<path opacity="0.5" fill="#FFFFFF" d="M16.5,33C7.4,33,0,25.6,0,16.5C0,7.4,7.4,0,16.5,0C25.6,0,33,7.4,33,16.5
				C33,25.6,25.6,33,16.5,33z M16.5,1C8,1,1,8,1,16.5S8,32,16.5,32S32,25,32,16.5S25,1,16.5,1z"/>
		</g>
	</g>
	<g>
		<g>
			<path fill="#FFFFFF" d="M12.3,13.7c0-2.7,1.7-4.8,4.5-4.8c2.5,0,4.2,1.5,4.2,4c0,1.6-0.8,2.6-1.7,3.4c-0.9,0.8-1.7,1.6-1.7,3v0.8
				h-1.7v-0.9c0-1.6,1-2.5,1.8-3.3c0.8-0.8,1.7-1.5,1.6-3c-0.1-1.5-1-2.3-2.4-2.3c-1.9,0-2.8,1.5-2.8,3.3H12.3z M18.3,23.4
				c0,0.8-0.6,1.4-1.4,1.4c-0.8,0-1.4-0.6-1.4-1.4c0-0.8,0.6-1.4,1.4-1.4C17.7,22,18.3,22.7,18.3,23.4z"/>
		</g>
	</g>
</g>
</svg>
