<?xml version="1.0" encoding="UTF-8" standalone="no"?>
<svg width="93px" height="41px" viewBox="0 0 93 41" version="1.1" xmlns="http://www.w3.org/2000/svg" xmlns:xlink="http://www.w3.org/1999/xlink" xmlns:sketch="http://www.bohemiancoding.com/sketch/ns">
    <!-- Generator: Sketch 3.3 (11970) - http://www.bohemiancoding.com/sketch -->
    <title>Untitled 2</title>
    <desc>Created with Sketch.</desc>
    <defs></defs>
    <g id="Page-1" stroke="none" stroke-width="1" fill="none" fill-rule="evenodd" sketch:type="MSPage">
        <path d="M1.053,24.152 C0.859,24.152 0.705,24.302 0.68,24.516 L0,29.681 L0.68,34.757 C0.705,34.971 0.859,35.12 1.053,35.12 C1.241,35.12 1.394,34.972 1.424,34.759 L1.424,34.759 L1.424,34.758 C1.424,34.758 1.424,34.758 1.424,34.759 L2.23,29.681 L1.424,24.515 C1.395,24.302 1.24,24.152 1.053,24.152 L1.053,24.152 Z M4.877,21.33 C4.845,21.108 4.686,20.955 4.49,20.955 C4.293,20.955 4.13,21.113 4.103,21.33 C4.103,21.332 3.189,29.681 3.189,29.681 L4.103,37.847 C4.129,38.066 4.292,38.224 4.49,38.224 C4.685,38.224 4.844,38.07 4.876,37.849 L5.916,29.681 L4.877,21.33 L4.877,21.33 Z M19.281,13.627 C18.906,13.627 18.596,13.934 18.578,14.324 L17.85,29.688 L18.578,39.617 C18.597,40.005 18.906,40.311 19.281,40.311 C19.654,40.311 19.963,40.004 19.985,39.615 L19.985,39.618 L20.808,29.688 L19.985,14.324 C19.963,13.934 19.654,13.627 19.281,13.627 L19.281,13.627 Z M11.826,18.967 C11.538,18.967 11.303,19.197 11.28,19.504 L10.46,29.684 L11.28,39.533 C11.302,39.838 11.538,40.068 11.826,40.068 C12.111,40.068 12.346,39.838 12.371,39.533 L13.303,29.684 L12.371,19.502 C12.346,19.197 12.111,18.967 11.826,18.967 L11.826,18.967 Z M26.857,40.31 C27.322,40.31 27.7,39.935 27.719,39.455 L28.433,29.693 L27.72,9.238 C27.701,8.758 27.323,8.383 26.858,8.383 C26.389,8.383 26.01,8.759 25.995,9.239 C25.995,9.24 25.362,29.692 25.362,29.692 L25.995,39.458 C26.01,39.934 26.389,40.31 26.857,40.31 L26.857,40.31 Z M42.367,40.356 C43.007,40.356 43.535,39.829 43.547,39.181 L43.547,39.188 L43.547,39.181 L44.045,29.699 L43.547,6.075 C43.536,5.428 43.007,4.9 42.367,4.9 C41.726,4.9 41.197,5.427 41.187,6.076 L40.742,29.691 C40.742,29.706 41.187,39.187 41.187,39.187 C41.197,39.829 41.727,40.356 42.367,40.356 L42.367,40.356 Z M34.553,40.319 C35.11,40.319 35.559,39.872 35.574,39.302 L35.574,39.309 L36.18,29.695 L35.573,9.092 C35.558,8.522 35.109,8.076 34.552,8.076 C33.991,8.076 33.542,8.522 33.53,9.092 L32.991,29.696 L33.531,39.308 C33.543,39.872 33.992,40.319 34.553,40.319 L34.553,40.319 Z M15.539,40.229 C15.87,40.229 16.138,39.964 16.163,39.615 L17.041,29.684 L16.163,20.237 C16.139,19.888 15.871,19.625 15.539,19.625 C15.203,19.625 14.935,19.89 14.914,20.241 L14.141,29.684 L14.914,39.614 C14.936,39.964 15.203,40.229 15.539,40.229 L15.539,40.229 Z M8.143,39.685 C8.385,39.685 8.581,39.494 8.609,39.23 L9.595,29.682 L8.61,19.774 C8.581,19.509 8.385,19.318 8.143,19.318 C7.898,19.318 7.702,19.51 7.677,19.774 C7.677,19.775 6.809,29.682 6.809,29.682 L7.677,39.228 C7.701,39.493 7.897,39.685 8.143,39.685 L8.143,39.685 Z M38.445,8.749 C37.84,8.749 37.355,9.23 37.343,9.846 L36.851,29.697 L37.343,39.249 C37.355,39.857 37.839,40.338 38.445,40.338 C39.049,40.338 39.531,39.858 39.545,39.242 L39.545,39.25 L40.097,29.698 L39.545,9.844 C39.531,9.23 39.049,8.749 38.445,8.749 L38.445,8.749 Z M23.055,40.33 C23.473,40.33 23.818,39.989 23.838,39.554 L24.606,29.691 L23.838,10.813 C23.817,10.377 23.473,10.037 23.055,10.037 C22.633,10.037 22.289,10.378 22.271,10.813 C22.271,10.814 21.591,29.691 21.591,29.691 L22.272,39.558 C22.289,39.989 22.633,40.33 23.055,40.33 L23.055,40.33 Z M31.631,39.399 L31.631,39.394 L32.291,29.694 L31.631,8.55 C31.615,8.025 31.201,7.613 30.69,7.613 C30.176,7.613 29.762,8.024 29.748,8.55 L29.162,29.693 L29.749,39.398 C29.763,39.918 30.177,40.329 30.69,40.329 C31.202,40.329 31.614,39.918 31.631,39.395 L31.631,39.399 L31.631,39.399 Z M81.549,17.506 C79.982,17.506 78.487,17.823 77.125,18.394 C76.215,8.086 67.571,0 57.027,0 C54.447,0 51.932,0.508 49.711,1.367 C48.848,1.701 48.618,2.045 48.61,2.712 L48.61,39.012 C48.619,39.712 49.162,40.295 49.845,40.364 C49.874,40.367 81.344,40.383 81.548,40.383 C87.864,40.383 92.985,35.262 92.985,28.945 C92.985,22.628 87.865,17.506 81.549,17.506 L81.549,17.506 Z M46.272,2.68 C45.585,2.68 45.021,3.244 45.011,3.937 L44.495,29.702 L45.012,39.053 C45.021,39.736 45.585,40.299 46.272,40.299 C46.957,40.299 47.521,39.736 47.531,39.043 L47.531,39.054 L48.092,29.702 L47.531,3.935 C47.521,3.244 46.957,2.68 46.272,2.68 L46.272,2.68 Z" id="Shape" fill="#E7DBCC" sketch:type="MSShapeGroup"></path>
    </g>
</svg>