<svg xmlns="http://www.w3.org/2000/svg" viewBox="-353 309.5 2145.6 821.1"><path fill="#FFF" d="M368.8 683.5c-3 0-5.4 2.3-5.8 5.7l-10.5 79.9 10.5 78.6c.4 3.3 2.8 5.6 5.8 5.6 2.9 0 5.3-2.3 5.8-5.6l12.5-78.6-12.5-80c-.5-3.3-2.9-5.6-5.8-5.6zm59.2-43.7c-.5-3.4-3-5.8-6-5.8-3.1 0-5.6 2.5-6 5.8l-14.2 129.3L416 895.6c.4 3.4 2.9 5.9 6 5.9 3 0 5.5-2.4 6-5.8l16.1-126.4L428 639.8zm223.1-119.3c-5.8 0-10.6 4.8-10.8 10.7l-11.3 238 11.3 153.7c.3 6 5.1 10.7 10.8 10.7s10.5-4.8 11-10.7l12.7-153.7-12.7-237.9c-.5-6-5.2-10.8-11-10.8zm-115.5 82.7c-4.4 0-8.1 3.5-8.5 8.4l-12.7 157.6 12.7 152.5c.3 4.8 4 8.3 8.5 8.3 4.4 0 8.1-3.5 8.5-8.3l14.5-152.5-14.5-157.6c-.4-4.8-4-8.4-8.5-8.4zm232.8 330.5c7.2 0 13-5.8 13.3-13.2l11.1-151.1-11.1-316.7c-.3-7.4-6.2-13.2-13.3-13.2-7.2 0-13.1 5.8-13.3 13.2l-9.8 316.7 9.8 151.2c.1 7.3 6 13.1 13.3 13.1zm240.3.8c9.9 0 18.1-8.2 18.3-18.2v.1-.1l7.7-146.8-7.7-365.8c-.2-10-8.4-18.2-18.3-18.2s-18.1 8.2-18.3 18.2l-6.9 365.7c0 .2 6.9 147.1 6.9 147.1.1 9.8 8.3 18 18.3 18zm-121.1-.7c8.6 0 15.6-6.9 15.8-15.7v.1l9.4-148.9-9.4-319.1c-.2-8.8-7.2-15.7-15.8-15.7-8.7 0-15.6 6.9-15.8 15.7l-8.4 319.1 8.4 148.9c.2 8.7 7.1 15.6 15.8 15.6zm-294.4-1.3c5.2 0 9.3-4.1 9.7-9.5l13.6-153.8-13.6-146.3c-.4-5.4-4.5-9.5-9.7-9.5s-9.4 4.1-9.7 9.5l-12 146.3 12 153.8c.3 5.4 4.4 9.5 9.7 9.5zM478.6 924c3.7 0 6.8-3 7.2-7l15.3-147.8-15.3-153.4c-.4-4.1-3.5-7-7.2-7-3.8 0-6.8 3-7.2 7L458 769.2 471.4 917c.4 4 3.4 7 7.2 7zm469.3-479c-9.4 0-16.8 7.4-17 16.9l-7.6 307.4 7.6 147.9c.2 9.4 7.6 16.8 17 16.8s16.8-7.4 17-16.9v.1l8.6-147.9-8.5-307.4c-.4-9.5-7.8-16.9-17.1-16.9zM709.6 934.1c6.5 0 11.8-5.3 12.1-12l11.9-152.8-11.9-292.4c-.3-6.7-5.7-12-12.1-12-6.5 0-11.9 5.3-12.2 12l-10.5 292.4 10.5 152.8c.3 6.7 5.6 12 12.2 12zm132.7-14.5l10.2-150.3-10.2-327.5c-.2-8.2-6.6-14.5-14.6-14.5s-14.4 6.4-14.6 14.5L804 769.3l9.1 150.3c.2 8.1 6.6 14.5 14.6 14.5s14.4-6.5 14.6-14.5zm773.1-339.1c-24.3 0-47.4 5-68.5 13.7-14-159.6-147.9-284.8-311.3-284.8-40 0-78.9 7.9-113.3 21.2-13.3 5.2-16.9 10.5-17 20.9v562.2c.1 10.8 8.6 19.8 19.1 21 .4 0 487.8.3 491 .3 97.8 0 177.2-79.3 177.2-177.2s-79.4-177.3-177.2-177.3zM1069.1 351c-10.6 0-19.4 8.8-19.5 19.4l-8 399.1 8.1 144.8c.1 10.5 8.9 19.3 19.5 19.3s19.3-8.7 19.5-19.4v.2l8.6-144.9-8.7-399.1c-.2-10.7-8.9-19.4-19.5-19.4zm-573.6 696.5c-21-5-26.7-7.5-26.7-15.9 0-5.9 4.8-11.9 18.9-11.9 12.1 0 21.6 5 30.1 13.6l19.1-18.5c-12.5-13-27.6-20.8-48.1-20.8-26 0-47.2 14.8-47.2 38.7 0 26 17 33.8 41.3 39.5 24.9 5.7 29.4 9.4 29.4 18 0 10-7.4 14.4-23 14.4-12.6 0-24.6-4.3-33.8-15.1l-19.1 17c10 14.8 29.2 24 51.3 24 36.1 0 52-16.9 52-42 0-28.9-23.2-36.2-44.2-41zm121.6-53.4c-36.1 0-57.3 27.9-57.3 68.2 0 40.2 21.3 68.2 57.3 68.2 36.1 0 57.4-27.9 57.4-68.2.1-40.3-21.3-68.2-57.4-68.2zm0 110c-21.3 0-30.2-18.3-30.2-41.9 0-23.6 8.9-41.9 30.2-41.9 21.4 0 30.2 18.3 30.2 41.9.1 23.6-8.8 41.9-30.2 41.9zm164.2-33.8c0 21.2-10.4 34.2-27.2 34.2-16.8 0-27-13.4-27-34.5v-73.9h-26.5v74.3c0 38.5 21.6 60 53.4 60 33.6 0 53.6-22.1 53.6-60.4v-73.9h-26.4c.1-.1.1 74.2.1 74.2zm140.4-18.3c0 7.3.4 24 .4 28.9-1.7-3.4-6-10-9.2-15l-46.8-69.8h-25.3v132.2h26V1070c0-7.3-.4-24-.4-28.9 1.7 3.4 6.1 10 9.2 15l48.6 72.1h23.6V996h-26c-.1 0-.1 56-.1 56zm101.4-56h-41.3v132.2h39.5c34 0 67.7-19.6 67.7-66.1-.2-48.3-28.2-66.1-65.9-66.1zm-1.9 106.7h-13v-80.8h13.9c28 0 39.5 13.4 39.5 40.4.1 24-12.7 40.4-40.4 40.4zm149.3-82.5c11.9 0 19.4 5.3 24.2 14.4l24.6-11.4c-8.4-17.1-23.5-29.2-48.3-29.2-34.5 0-58.7 27.9-58.7 68.2 0 41.7 23.2 68.2 57.7 68.2 24 0 39.9-11.2 48.9-29.9l-22.3-13.2c-7 11.7-13.9 16.8-25.8 16.8-19.8 0-31.3-18.2-31.3-41.9-.1-24.5 11.3-42 31-42zm98.1-24.2h-26.4v132.2h79.4v-26h-53V996zm122.7-1.9c-36.1 0-57.4 27.9-57.4 68.2 0 40.2 21.3 68.2 57.4 68.2 36.1 0 57.4-27.9 57.4-68.2-.1-40.3-21.3-68.2-57.4-68.2zm0 110c-21.4 0-30.2-18.3-30.2-41.9 0-23.6 8.9-41.9 30.2-41.9s30.2 18.3 30.2 41.9c0 23.6-8.9 41.9-30.2 41.9zm164.1-33.8c0 21.2-10.3 34.2-27.2 34.2-16.8 0-27-13.4-27-34.5v-73.9h-26.4v74.3c0 38.5 21.5 60 53.4 60 33.6 0 53.6-22.1 53.6-60.4v-73.9h-26.4v74.2zm100.8-74.3h-41.3v132.2h39.5c34 0 67.6-19.6 67.6-66.1-.1-48.3-28.1-66.1-65.8-66.1zm-1.9 106.7h-13v-80.8h13.9c27.9 0 39.5 13.4 39.5 40.4 0 24-12.7 40.4-40.4 40.4zM-353 546.7l254 173.2-254 173.2"/></svg>