<?xml version="1.0" encoding="utf-8"?>
<!-- Generator: Adobe Illustrator 18.1.1, SVG Export Plug-In . SVG Version: 6.00 Build 0)  -->
<!DOCTYPE svg PUBLIC "-//W3C//DTD SVG 1.1//EN" "http://www.w3.org/Graphics/SVG/1.1/DTD/svg11.dtd">
<svg version="1.1" id="Capa_1" xmlns="http://www.w3.org/2000/svg" xmlns:xlink="http://www.w3.org/1999/xlink" x="0px" y="0px"
	 viewBox="0 0 48 20" enable-background="new 0 0 48 20" xml:space="preserve">
<g>
	<path fill="#B1B0B0" d="M38.1,0.4H9.9c-5.4,0-9.7,4.3-9.7,9.6c0,5.3,4.4,9.6,9.7,9.6h28.3c5.4,0,9.7-4.3,9.7-9.6
		C47.9,4.7,43.5,0.4,38.1,0.4z M38.7,18.6H9.3c-4.5,0-8.1-3.9-8.1-8.7c0-4.8,3.7-8.7,8.1-8.7h29.4c4.5,0,8.1,3.9,8.1,8.7
		C46.8,14.7,43.2,18.6,38.7,18.6z"/>
	<circle fill="#B1B0B0" cx="37.3" cy="10" r="5.8"/>
</g>
</svg>
