<?xml version="1.0" encoding="utf-8"?>
<!-- Generator: Adobe Illustrator 18.1.1, SVG Export Plug-In . SVG Version: 6.00 Build 0)  -->
<!DOCTYPE svg PUBLIC "-//W3C//DTD SVG 1.1//EN" "http://www.w3.org/Graphics/SVG/1.1/DTD/svg11.dtd">
<svg version="1.1" id="Capa_1" xmlns="http://www.w3.org/2000/svg" xmlns:xlink="http://www.w3.org/1999/xlink" x="0px" y="0px"
	 viewBox="0 0 1440 1440" enable-background="new 0 0 1440 1440" xml:space="preserve">
<path opacity="0.5" fill="#FFFFFF" enable-background="new    " d="M720,0C322.3,0,0,322.3,0,720s322.3,720,720,720
	s720-322.3,720-720S1117.7,0,720,0z M1189.7,473.1c-10.3,10.3-17.1,20.6-17.1,34.3c0,209.1-78.9,384-233.1,521.1
	c-116.6,102.9-253.7,154.3-408,157.7c-130.3,3.4-250.3-24-360-85.7c-6.9-3.4-13.7-6.9-20.6-17.1c120,6.9,229.7-13.7,332.6-89.1
	c-106.3-13.7-178.3-89.1-216-157.7c34.3,0,61.7,0,92.6,0c-109.7-68.6-168-130.3-174.9-246.9c34.3,10.3,65.1,13.7,96,24
	c-44.6-41.1-78.9-92.6-89.1-150.9c-10.3-58.3-3.4-116.6,27.4-171.4c126.9,150.9,288,233.1,476.6,246.9c3.4-41.1,0-78.9,10.3-113.1
	c44.6-171.4,250.3-233.1,380.6-120c17.1,13.7,30.9,17.1,48,10.3c37.7-13.7,78.9-30.9,116.6-44.6c-3.4,30.9-27.4,68.6-85.7,123.4
	c37.7-10.3,75.4-20.6,116.6-30.9c-6.9,10.3-10.3,17.1-13.7,24C1244.6,418.3,1220.6,445.7,1189.7,473.1z"/>
</svg>
