<?xml version="1.0" encoding="utf-8"?>
<!-- Generator: Adobe Illustrator 18.1.1, SVG Export Plug-In . SVG Version: 6.00 Build 0)  -->
<!DOCTYPE svg PUBLIC "-//W3C//DTD SVG 1.1//EN" "http://www.w3.org/Graphics/SVG/1.1/DTD/svg11.dtd">
<svg version="1.1" id="Capa_1" xmlns="http://www.w3.org/2000/svg" xmlns:xlink="http://www.w3.org/1999/xlink" x="0px" y="0px"
	 viewBox="0 0 22.6 15.5" enable-background="new 0 0 22.6 15.5" xml:space="preserve">
<g>
	<path fill-rule="evenodd" clip-rule="evenodd" fill="#FFFFFF" d="M10.7,14.9c-0.4,0.4-1,0.6-1.5,0.6c-0.5,0-1.1-0.2-1.5-0.6
		L0.6,7.8C0.2,7.4,0,6.8,0,6.3c0-0.5,0.2-1,0.6-1.4C1,4.5,1.5,4.3,2,4.2c0.6,0,1.1,0.2,1.6,0.6l5.6,5.6L19,0.6C19.4,0.2,20,0,20.6,0
		c0.5,0,1,0.2,1.4,0.6C22.4,1,22.6,1.5,22.6,2c0,0.6-0.2,1.1-0.6,1.6L10.7,14.9z"/>
</g>
</svg>
